{"glyphs":{"0":{"ha":868,"x_min":42,"x_max":828,"o":"m 171 89 q 50 371 76 183 q 42 486 42 428 q 81 733 42 618 q 192 904 119 847 q 451 978 286 978 q 610 956 535 978 q 734 892 685 935 q 800 816 783 850 q 822 719 817 782 q 828 483 828 657 q 822 247 828 310 q 800 151 817 185 q 730 71 783 117 q 619 9 676 25 q 447 -7 563 -7 q 281 10 332 -7 q 171 89 231 28 m 183 237 q 206 194 183 237 q 294 108 228 151 q 438 65 361 65 q 594 96 514 65 q 724 237 674 126 q 774 473 774 347 q 740 694 774 599 q 623 843 707 790 q 439 896 539 896 q 218 803 303 896 q 160 672 181 761 q 139 481 139 582 q 183 237 139 322 m 346 203 q 316 302 326 222 q 306 483 306 382 q 316 665 306 585 q 342 760 326 744 q 375 786 358 776 q 449 803 408 804 q 523 786 489 803 q 572 741 557 769 q 598 638 588 713 q 608 483 608 563 q 598 329 608 404 q 572 226 588 254 q 523 181 557 197 q 449 164 489 164 q 346 203 385 164 m 489 293 q 528 453 528 347 q 513 632 529 558 q 457 726 492 726 q 414 686 435 726 q 372 457 372 600 q 392 317 372 371 q 446 264 413 264 q 489 293 468 265 z "},"1":{"ha":672,"x_min":42,"x_max":632,"o":"m 632 21 l 311 0 l 311 276 q 296 522 311 494 q 276 533 290 533 q 253 528 267 533 q 129 489 194 503 q 85 483 103 483 q 54 494 60 483 q 42 601 42 514 q 56 720 42 688 q 103 763 69 753 q 185 810 136 774 q 287 898 235 846 q 383 968 339 950 q 465 981 415 981 q 504 979 483 981 l 632 968 l 632 21 m 547 494 q 532 879 547 826 q 483 918 521 917 q 403 878 447 918 q 370 841 382 860 q 340 804 358 822 q 301 769 322 786 q 213 715 256 733 q 140 670 169 697 q 110 622 110 643 q 136 589 110 589 q 168 597 149 589 q 285 640 254 633 q 317 644 303 644 q 331 643 325 644 q 351 632 346 638 q 364 606 357 626 q 372 569 371 586 q 376 516 374 553 q 379 313 379 479 q 390 109 379 147 q 463 71 400 71 l 547 71 l 547 494 z "},"2":{"ha":892,"x_min":42,"x_max":851,"o":"m 531 271 l 851 271 l 851 0 l 446 0 q 89 12 132 0 q 42 54 46 24 l 42 72 q 126 274 42 157 q 346 494 210 390 q 513 681 513 622 q 463 711 513 711 q 415 692 433 711 q 392 660 396 674 q 306 618 381 632 q 199 607 253 608 q 153 610 175 607 q 60 642 75 617 q 53 669 53 653 q 93 799 53 713 q 149 890 115 846 q 215 950 183 933 q 326 974 246 967 q 415 978 367 978 q 522 974 464 978 q 711 935 638 967 q 818 844 785 904 q 850 685 850 785 q 796 496 850 579 q 631 338 743 413 l 531 271 m 783 136 q 770 181 783 168 q 720 198 757 193 q 605 203 683 203 q 486 209 526 203 q 428 229 446 215 q 417 250 417 238 q 422 268 417 258 q 572 424 446 317 q 738 610 699 531 q 758 690 757 650 q 740 771 758 729 q 632 864 713 831 q 463 899 551 897 q 456 899 460 899 q 290 868 369 899 q 176 779 207 836 q 164 736 164 756 q 190 696 164 710 q 232 683 210 685 q 290 701 260 683 q 333 742 315 717 q 456 810 376 804 q 474 811 464 811 q 581 763 542 811 q 610 685 610 728 q 417 421 610 576 q 225 233 307 333 q 143 88 143 133 q 237 74 143 79 q 508 68 331 68 q 735 78 686 68 q 783 136 783 89 z "},"3":{"ha":878,"x_min":42,"x_max":836,"o":"m 207 -6 q 121 69 167 11 q 53 188 75 128 q 42 238 42 218 q 51 265 42 256 q 108 289 63 276 q 218 311 153 301 q 276 317 251 317 q 314 313 299 317 q 368 260 346 303 q 424 203 390 218 q 451 196 439 196 q 479 207 468 196 q 496 254 496 222 q 494 274 496 264 q 408 361 483 350 q 361 376 376 365 q 332 483 332 397 q 329 546 332 526 q 310 581 326 565 q 272 603 294 597 q 184 619 249 608 q 86 657 119 629 q 61 713 61 679 q 125 843 61 764 q 218 908 164 890 q 407 935 272 926 q 508 939 465 939 q 596 933 564 939 q 705 880 651 922 q 785 774 758 838 q 808 663 808 718 q 807 646 808 654 q 768 547 803 583 q 754 518 754 533 q 786 469 754 494 q 829 368 817 444 q 836 278 836 324 q 833 211 836 244 q 800 101 824 131 q 684 3 753 40 q 451 -36 615 -35 q 435 -36 443 -36 q 207 -6 283 -36 m 767 303 q 710 404 767 368 q 638 501 650 442 q 636 526 635 514 q 667 585 636 567 q 701 674 703 607 q 701 689 701 681 q 657 803 697 769 q 490 861 596 854 q 457 863 474 863 q 285 826 368 863 q 165 742 185 785 q 215 706 165 710 q 275 721 236 706 q 354 763 314 736 q 426 793 394 789 q 435 793 431 793 q 499 774 463 793 q 565 676 565 738 q 565 668 565 672 q 483 550 561 600 q 401 467 401 496 q 414 447 401 456 q 479 435 432 435 q 560 396 526 435 q 603 307 593 357 q 607 271 606 289 q 596 206 607 239 q 536 131 579 154 q 440 99 476 99 q 428 100 433 99 q 342 153 389 107 q 257 213 296 200 q 222 218 239 218 q 190 211 204 218 q 164 169 164 197 q 199 116 164 140 q 285 74 233 92 q 456 40 378 40 q 500 44 479 40 q 606 80 553 51 q 694 147 660 108 q 767 303 767 232 m 401 610 q 410 614 401 610 q 437 634 419 617 q 460 670 454 651 q 458 697 467 689 q 431 699 450 706 q 395 676 413 693 q 372 640 378 658 q 374 613 365 621 q 401 610 382 604 z "},"4":{"ha":926,"x_min":42,"x_max":885,"o":"m 261 192 l 42 192 l 42 336 q 58 450 42 404 q 117 557 74 496 q 244 717 161 618 q 357 850 326 815 q 424 921 388 885 q 477 969 461 957 q 523 992 493 981 q 574 1003 553 1003 q 635 1004 594 1004 l 783 1004 l 783 733 q 794 516 783 569 q 833 463 804 463 q 873 431 861 463 q 885 339 885 400 q 879 249 885 278 q 835 192 869 192 q 797 169 811 192 q 783 115 783 147 q 781 68 783 82 q 771 44 778 54 q 744 29 764 33 q 640 21 701 21 q 542 25 596 21 q 503 36 517 26 q 486 57 489 46 q 481 107 481 78 q 450 180 481 168 q 261 192 419 192 m 658 101 q 682 172 682 124 q 697 240 682 221 q 746 260 713 260 q 798 275 779 260 q 817 313 817 290 q 797 357 817 336 q 756 383 778 378 q 724 394 733 389 q 706 413 714 400 q 693 443 697 426 q 686 493 689 460 q 682 638 682 543 q 681 772 682 733 q 678 844 681 811 q 672 892 676 876 q 661 919 668 908 q 621 936 649 936 q 457 806 583 936 q 220 526 331 675 q 110 332 110 378 q 125 284 110 297 q 169 267 140 271 q 313 254 222 258 q 441 247 404 250 q 506 238 478 243 q 547 224 535 233 q 576 161 569 206 q 608 97 582 117 q 632 89 621 89 q 658 101 646 89 m 286 404 q 244 427 243 411 q 283 496 244 443 q 376 607 322 549 q 529 718 479 717 q 540 717 535 718 q 578 603 578 704 q 575 543 578 576 q 571 487 572 503 q 560 451 569 471 q 546 426 551 431 q 516 414 540 421 q 472 406 492 407 q 392 400 453 404 q 350 399 369 399 q 286 404 314 400 m 429 463 q 465 478 450 463 q 481 523 481 494 q 471 554 481 551 q 469 554 471 554 q 419 522 458 554 q 379 476 379 489 q 429 463 379 463 z "},"5":{"ha":899,"x_min":42,"x_max":857,"o":"m 46 286 q 136 333 58 319 q 215 340 175 340 q 292 333 254 340 q 383 286 369 319 q 424 242 396 253 q 446 238 435 238 q 478 246 463 238 q 517 306 504 263 q 521 346 522 326 q 514 390 521 368 q 472 443 501 432 q 446 449 460 449 q 406 439 426 449 q 250 407 347 408 q 242 407 246 407 q 107 435 151 407 q 78 511 78 453 q 103 722 78 567 l 144 981 l 810 981 l 810 846 q 796 732 810 754 q 722 710 782 710 l 636 710 l 735 625 q 846 463 821 553 q 857 378 857 424 q 838 250 857 318 q 468 1 769 1 q 460 1 464 1 q 316 12 389 3 q 213 33 243 21 q 85 149 142 63 q 42 260 42 214 q 46 286 42 274 m 708 515 q 619 592 663 575 q 502 608 575 608 q 405 609 429 608 q 361 613 381 610 q 332 619 342 615 q 317 628 322 622 q 314 640 314 632 q 322 678 314 653 q 338 746 338 717 q 397 768 338 758 q 545 778 456 778 q 674 783 635 778 q 727 801 713 788 q 742 835 742 814 q 741 863 742 856 q 738 876 740 869 q 731 887 735 882 q 719 896 728 892 q 702 902 711 900 q 678 906 693 904 q 647 910 663 908 q 604 911 631 911 q 524 913 567 913 q 448 913 481 913 q 396 914 415 913 q 392 914 394 914 q 346 911 374 914 q 305 908 315 908 q 274 898 294 907 q 249 885 254 889 q 233 862 244 881 q 219 833 221 843 q 209 792 217 822 q 199 743 201 763 q 192 698 196 724 q 188 668 188 672 q 185 647 186 657 l 161 500 l 335 524 q 438 532 393 532 q 549 508 513 532 q 607 353 607 472 q 561 200 607 265 q 453 135 515 135 q 365 178 421 135 q 325 215 349 190 q 261 250 301 239 q 226 257 243 256 q 196 250 208 257 q 169 204 169 236 q 226 140 168 172 q 364 92 283 108 q 463 79 419 79 q 497 82 481 79 q 603 111 551 89 q 681 158 656 133 q 763 335 756 233 q 764 358 764 346 q 708 515 764 444 z "},"6":{"ha":897,"x_min":42,"x_max":857,"o":"m 458 -18 q 224 28 310 -18 q 90 192 138 75 q 42 469 42 310 q 150 843 42 726 q 497 960 258 960 q 651 943 600 960 q 751 876 701 926 q 831 746 831 797 q 760 678 831 697 l 685 658 l 757 581 q 851 388 832 500 q 857 318 857 353 q 829 175 857 243 q 697 28 788 75 q 460 -18 608 -18 q 458 -18 460 -18 m 690 167 q 763 333 763 249 q 697 499 763 415 q 603 568 663 543 q 501 592 550 590 q 488 590 494 592 q 413 554 433 586 q 410 544 410 549 q 443 524 410 531 q 479 519 458 521 q 578 473 539 519 q 625 364 617 426 q 626 333 626 349 q 608 239 626 286 q 528 146 583 175 q 465 129 497 128 q 446 131 456 129 q 371 162 404 138 q 316 231 338 186 q 294 325 294 276 q 306 418 294 374 q 333 477 318 463 q 353 499 347 492 q 358 511 358 507 q 335 519 358 518 q 296 569 303 519 q 294 597 294 583 q 308 681 294 636 q 366 777 328 742 q 433 817 404 813 q 442 817 438 817 q 515 796 469 817 q 650 757 600 757 q 685 764 671 757 q 699 788 700 771 q 663 826 699 806 q 578 858 628 846 q 438 879 496 879 q 378 872 404 879 q 244 786 306 853 q 153 629 183 719 q 128 461 128 551 q 128 436 128 449 q 176 239 132 331 q 319 90 225 138 q 454 58 385 58 q 513 63 482 58 q 690 167 617 82 m 514 272 q 528 336 528 307 q 497 414 528 379 q 451 440 475 439 q 422 431 438 440 q 396 339 397 415 q 396 331 396 335 q 444 222 396 233 q 454 221 450 221 q 494 242 475 221 q 514 272 506 253 m 476 696 q 483 702 476 696 q 481 716 489 708 q 456 717 474 724 q 417 690 438 711 q 399 665 396 668 q 433 672 403 661 q 476 696 464 683 z "},"7":{"ha":889,"x_min":42,"x_max":849,"o":"m 207 64 q 277 355 207 135 q 376 593 347 575 q 413 632 413 615 q 389 658 413 646 q 262 677 349 678 q 125 696 175 676 q 42 835 42 729 q 44 869 42 851 l 56 964 q 849 983 451 974 l 849 851 q 829 728 849 769 q 794 675 810 688 q 651 449 731 622 q 556 151 572 276 l 535 0 l 371 0 q 237 12 267 0 q 207 64 207 24 m 372 68 q 432 105 410 68 q 485 274 454 142 q 576 533 515 407 q 708 725 638 660 q 765 799 749 763 q 781 854 781 835 q 772 885 781 874 q 726 903 764 896 q 455 913 674 913 q 188 903 236 914 q 139 846 139 893 q 153 801 139 814 q 207 783 168 788 q 334 778 246 778 q 487 769 422 778 q 560 747 551 760 q 561 738 561 744 q 543 676 561 719 q 476 553 519 619 q 317 175 333 326 q 315 146 315 158 q 372 68 315 68 z "},"8":{"ha":882,"x_min":42,"x_max":840,"o":"m 71 425 q 99 535 99 481 q 86 607 99 571 q 65 715 65 665 q 133 872 65 807 q 463 975 239 975 q 638 947 560 975 q 762 872 717 919 q 821 758 807 824 q 825 717 825 739 q 803 608 825 668 q 786 536 786 565 q 801 493 786 508 q 839 382 833 461 q 840 340 840 363 q 828 218 840 281 q 774 88 810 133 q 682 26 738 43 q 479 0 626 8 q 393 -3 431 -3 q 369 -3 381 -3 q 275 3 308 -3 q 160 58 217 14 q 50 229 75 125 q 42 300 42 265 q 71 425 42 364 m 600 99 q 707 160 665 121 q 763 246 749 200 q 769 290 769 268 q 761 342 769 315 q 701 438 746 392 q 672 467 681 458 q 655 492 663 476 q 647 514 647 507 q 653 540 647 521 q 684 609 658 561 q 718 672 710 657 q 732 706 726 686 q 737 733 738 726 q 728 756 736 740 q 710 782 719 772 q 668 824 700 792 q 454 890 601 890 q 261 842 346 890 q 185 769 214 814 q 164 701 164 738 q 165 685 164 693 q 218 600 171 640 q 263 532 263 563 q 199 433 263 497 q 129 292 129 364 q 142 231 129 261 q 308 90 182 126 q 421 75 361 75 q 431 75 425 75 q 439 75 435 75 q 600 99 514 75 m 360 165 q 308 249 324 186 q 300 318 300 282 q 306 375 300 347 q 353 469 318 440 q 426 494 383 494 q 496 482 458 494 q 579 408 550 463 q 603 314 603 364 q 601 290 603 303 q 550 182 594 226 q 464 133 506 138 q 456 132 460 133 q 360 165 417 132 m 496 326 q 499 350 497 339 q 457 400 499 400 q 388 368 407 400 q 378 331 378 353 q 389 283 378 310 q 432 240 406 240 q 435 240 433 240 q 483 279 464 243 q 496 326 492 300 m 446 571 q 407 568 425 568 q 319 594 346 568 q 297 658 297 617 q 303 704 297 679 q 365 803 319 781 q 453 826 411 826 l 453 826 q 526 806 494 826 q 579 756 560 785 q 599 696 597 729 q 567 617 599 654 q 446 571 538 581 m 503 707 q 488 729 503 719 q 442 739 472 739 q 404 714 413 739 q 401 700 401 707 q 419 664 401 682 q 449 650 433 650 q 472 657 460 650 q 503 707 503 675 z "},"9":{"ha":882,"x_min":42,"x_max":842,"o":"m 157 74 q 135 95 157 74 q 90 162 114 117 q 65 242 65 207 q 88 290 65 276 q 175 306 110 304 l 285 306 l 201 349 q 72 483 113 393 q 42 633 42 550 q 46 693 42 663 q 155 912 64 842 q 425 982 246 982 q 600 963 551 982 q 774 818 658 940 q 805 775 789 801 q 826 732 821 749 q 835 675 831 715 q 841 599 840 635 q 842 490 842 563 q 841 383 842 418 q 835 307 840 347 q 826 250 831 267 q 805 207 821 233 q 774 164 789 181 q 604 21 658 42 q 427 0 550 0 q 252 16 304 0 q 157 74 200 32 m 458 83 q 642 155 575 94 q 740 307 708 215 q 768 461 767 383 q 767 492 768 476 q 728 673 760 586 q 634 822 697 760 q 497 897 571 883 q 425 904 460 904 q 360 897 392 904 q 251 852 297 883 q 173 774 204 821 q 132 678 142 728 q 128 640 128 660 q 139 574 128 607 q 195 480 156 519 q 296 421 235 440 q 390 406 344 406 q 414 407 401 406 q 488 440 469 413 q 490 450 490 446 q 465 469 490 463 q 428 474 450 474 q 310 517 350 474 q 268 628 268 560 q 281 732 268 696 q 393 826 303 799 q 433 832 413 832 q 472 826 453 832 q 540 783 513 814 q 585 711 568 751 q 600 638 600 676 q 599 626 600 632 q 569 536 596 581 q 557 503 557 517 q 578 469 557 483 q 601 404 601 454 q 599 369 601 389 q 554 228 590 293 q 446 151 513 151 q 428 153 438 151 q 335 192 392 158 q 249 229 279 225 q 238 231 243 231 q 197 213 214 231 q 185 188 185 200 q 189 172 185 179 q 256 121 201 151 q 417 82 326 82 q 458 83 438 82 m 403 264 q 424 242 403 242 q 439 244 431 242 q 490 285 475 254 q 493 322 506 315 q 458 319 481 328 q 419 294 435 310 q 403 264 403 278 m 479 585 q 500 633 499 610 q 499 643 500 638 q 486 690 494 672 q 448 735 469 729 q 410 731 426 742 q 383 697 393 719 q 371 638 371 665 q 378 600 371 617 q 425 557 394 558 q 428 557 426 557 q 479 585 457 557 z "}," ":{"ha":417,"x_min":0,"x_max":0,"o":""},"!":{"ha":413,"x_min":42,"x_max":371,"o":"m 217 53 q 67 59 69 53 q 51 551 64 65 l 42 1033 l 371 1033 l 368 543 l 364 53 l 217 53 m 288 135 q 297 142 288 135 q 307 188 307 150 q 288 240 307 225 q 222 256 268 256 q 156 240 175 256 q 138 188 138 225 q 156 135 138 150 q 222 119 175 119 q 288 135 268 119 m 217 422 q 251 450 235 422 q 289 721 267 478 l 314 967 l 225 967 q 151 942 164 967 q 138 776 138 918 q 160 528 138 635 q 217 422 183 422 z "},"\"":{"ha":724,"x_min":42,"x_max":682,"o":"m 199 697 q 62 751 82 697 q 42 953 42 804 l 42 1103 l 682 1103 l 682 1006 q 665 822 682 913 q 624 714 647 731 q 513 697 600 697 q 401 710 425 697 q 376 772 378 724 l 375 849 l 344 772 q 295 713 326 729 q 199 697 264 697 m 199 767 q 257 842 236 767 q 278 958 278 917 q 258 1017 278 1000 q 192 1035 238 1035 q 129 1027 146 1035 q 113 991 113 1019 q 126 892 113 963 q 199 767 151 767 m 446 919 q 446 883 446 919 q 464 806 446 847 q 506 764 482 764 q 554 810 531 764 q 578 965 578 857 q 565 1022 578 1008 q 513 1035 551 1035 q 460 1013 474 1035 q 446 919 446 990 z "},"#":{"ha":928,"x_min":42,"x_max":888,"o":"m 817 957 l 807 854 q 842 781 807 793 q 888 689 888 763 q 874 625 888 658 q 817 568 854 578 q 753 526 753 551 q 753 525 753 525 q 819 481 753 499 q 865 458 847 474 q 882 414 882 442 q 851 289 882 319 q 776 260 831 267 q 699 228 721 253 q 667 153 676 204 q 653 86 657 103 q 642 54 650 69 q 625 33 633 39 q 508 17 600 17 l 376 17 l 397 143 q 406 217 406 196 q 400 238 406 238 q 381 218 394 238 q 357 161 368 199 q 346 83 346 124 q 322 30 346 43 q 207 17 297 17 l 68 17 l 90 135 q 99 217 99 181 q 76 254 99 253 q 52 289 63 254 q 42 384 42 324 q 55 467 42 444 q 113 490 68 490 q 174 514 158 490 q 176 529 176 519 q 157 549 176 539 q 110 558 138 558 q 67 568 82 558 q 42 668 42 586 q 58 772 42 750 q 128 801 74 794 q 208 829 182 807 q 244 900 233 851 q 285 967 256 949 q 367 990 314 985 q 435 996 421 994 q 466 997 449 997 q 490 994 483 996 q 503 986 496 993 q 513 956 513 978 l 501 849 q 514 821 501 821 q 549 890 532 821 l 553 914 q 615 979 561 964 q 764 996 672 996 q 804 990 797 996 q 817 957 817 981 m 249 125 q 280 217 271 165 q 313 288 289 268 q 408 315 336 308 l 522 326 l 499 201 q 490 133 490 158 q 490 126 490 131 q 503 90 490 93 q 510 89 507 89 q 553 125 533 89 q 583 215 575 165 q 614 286 592 264 q 698 316 636 308 q 778 363 760 324 q 783 383 783 375 q 756 417 783 404 q 714 424 740 424 q 708 422 708 424 q 707 422 708 422 q 664 442 679 422 q 649 511 649 461 q 717 617 649 599 q 779 671 763 629 q 785 697 785 686 q 765 725 785 718 q 750 728 758 728 q 726 758 736 728 q 717 827 717 788 q 710 892 717 867 q 694 924 704 917 q 674 924 685 931 q 632 829 649 910 q 599 751 618 767 q 562 731 581 735 q 494 728 543 728 q 429 744 446 728 q 413 826 413 761 q 397 917 413 892 q 381 929 390 929 q 363 917 372 929 q 332 848 342 893 q 316 786 322 803 q 301 757 310 769 q 281 739 293 744 q 207 728 256 728 q 110 678 110 728 q 110 676 110 678 q 132 640 110 653 q 186 626 154 626 q 232 625 218 626 q 257 619 246 624 q 271 607 268 614 q 274 583 274 600 q 260 513 274 561 q 224 444 247 465 q 178 422 200 422 q 140 415 154 422 q 108 376 108 400 q 108 375 108 376 q 126 336 110 351 q 169 321 142 321 q 203 297 197 321 q 204 279 204 290 q 192 183 204 249 q 185 125 185 147 q 200 90 185 92 q 206 89 203 90 q 249 125 229 89 m 433 422 q 406 422 433 422 q 363 440 379 422 q 346 526 346 457 q 364 610 346 594 q 466 626 382 626 q 567 614 550 626 q 574 589 575 608 q 565 538 574 569 q 549 449 549 474 q 518 430 549 438 q 433 422 488 422 z "},"$":{"ha":931,"x_min":42,"x_max":890,"o":"m 379 -39 q 351 8 371 -12 q 308 29 331 29 q 201 77 265 29 q 90 189 138 125 q 42 294 42 253 q 67 355 42 335 q 142 384 93 375 q 225 396 192 393 q 264 397 246 397 q 333 388 308 397 q 367 392 367 375 q 319 431 364 417 q 292 436 306 435 q 193 481 244 436 q 108 593 142 525 q 75 724 75 661 q 150 919 75 828 q 310 1011 225 1011 q 358 1021 338 1011 q 379 1044 379 1031 q 374 1076 367 1068 q 385 1086 381 1083 q 401 1090 390 1089 q 434 1092 418 1092 q 453 1092 450 1092 q 553 1071 553 1092 q 584 1024 553 1056 q 660 983 615 992 q 757 931 706 974 q 833 833 808 888 q 850 772 850 800 q 844 742 850 756 q 681 689 825 690 l 536 688 l 675 619 q 833 492 776 571 q 890 328 890 414 q 811 142 890 242 q 654 26 732 42 q 553 -58 553 6 q 533 -106 553 -92 q 468 -121 514 -121 q 403 -106 422 -121 q 385 -54 385 -90 l 379 -39 m 738 224 q 783 343 783 285 q 371 651 783 514 q 328 688 344 660 q 311 764 311 717 q 332 825 311 811 q 404 836 350 836 q 421 836 413 836 q 539 824 489 835 q 606 800 589 814 q 649 785 626 783 q 676 789 663 785 q 717 840 717 803 q 680 874 717 851 q 578 923 643 897 q 467 951 514 949 q 461 951 464 951 q 349 928 415 951 q 233 865 278 903 q 175 783 189 828 q 165 728 167 756 q 169 692 165 710 q 219 602 179 646 q 322 526 258 558 q 436 453 404 486 q 446 438 446 443 q 469 424 446 426 q 488 422 478 422 q 526 426 506 422 q 563 431 546 431 q 628 403 607 431 q 643 344 644 381 q 635 283 643 318 q 593 218 622 232 q 500 204 567 206 q 490 204 494 204 q 322 253 340 206 q 238 299 308 290 q 211 300 224 300 q 151 278 164 300 q 151 255 147 269 q 203 206 156 240 q 334 132 251 172 q 457 89 417 92 q 469 88 463 89 q 563 111 508 88 q 672 169 625 138 q 738 224 719 200 z "},"%":{"ha":1272,"x_min":42,"x_max":1231,"o":"m 327 766 q 331 770 327 766 q 340 790 335 775 q 344 828 344 806 q 334 872 344 851 q 313 892 324 892 q 293 882 301 892 q 276 829 276 863 q 286 776 276 796 q 308 757 296 757 q 327 766 319 757 m 390 42 q 362 42 390 42 q 306 53 335 42 q 278 83 278 65 q 318 186 278 100 q 413 372 357 271 q 508 582 508 549 q 506 589 508 588 q 478 581 500 593 q 401 559 456 569 q 297 549 346 549 q 108 619 174 549 q 42 819 42 689 q 311 1090 42 1090 q 512 1024 443 1090 q 583 828 581 957 l 585 701 l 685 896 q 758 1024 731 986 q 812 1076 785 1063 q 883 1090 839 1090 q 956 1080 926 1090 q 986 1056 986 1069 q 871 790 986 1021 l 756 561 l 929 575 q 988 578 960 578 q 1163 528 1107 578 q 1231 307 1231 467 q 949 42 1231 42 q 751 109 819 42 q 681 303 682 176 l 679 431 l 579 236 q 479 75 514 108 q 390 42 444 42 m 1022 129 q 1083 172 1060 149 q 1121 219 1106 194 q 1154 311 1154 272 q 1087 445 1154 375 q 961 515 1019 515 q 857 484 903 515 q 789 408 811 453 q 769 324 769 369 q 771 310 769 317 q 811 210 774 256 q 856 167 846 167 q 857 167 856 167 q 868 268 868 185 q 869 377 868 351 q 874 424 871 403 q 889 451 878 444 q 959 464 910 464 q 1024 440 1008 464 q 1047 322 1040 417 q 1049 279 1049 299 q 1049 261 1049 269 q 1042 196 1049 215 q 981 145 1029 165 q 931 118 932 125 q 957 111 929 113 q 960 111 958 111 q 1022 129 988 111 m 986 318 q 978 368 986 360 q 954 360 969 376 q 933 332 939 344 q 926 306 928 318 q 933 281 926 293 q 968 246 954 246 q 986 318 986 246 m 450 682 q 514 793 507 739 q 515 811 515 801 q 482 921 515 860 q 431 982 450 982 q 401 897 407 982 q 399 822 400 867 q 397 751 399 776 q 392 705 396 725 q 378 678 389 685 q 353 668 367 671 q 315 665 340 665 q 276 668 289 665 q 251 678 263 671 q 238 706 240 685 q 231 818 231 744 q 224 939 231 892 q 207 986 217 986 q 147 919 182 986 q 113 809 113 851 q 146 722 113 767 q 228 645 179 676 q 310 614 276 614 q 383 634 343 614 q 450 682 422 654 z "},"&":{"ha":1093,"x_min":42,"x_max":1051,"o":"m 190 711 l 185 833 q 199 922 185 892 q 254 979 214 951 q 501 1032 328 1032 q 746 981 674 1032 q 822 813 822 929 q 754 628 822 696 q 707 570 707 581 q 802 560 707 560 q 944 532 897 560 q 990 438 990 504 q 1002 360 990 404 q 1033 287 1014 315 q 1051 221 1051 258 q 1001 108 1051 158 q 889 58 951 58 q 817 81 854 58 q 751 104 781 104 q 691 88 721 104 q 583 63 661 72 q 408 53 506 53 q 247 68 310 53 q 135 122 185 83 q 42 326 42 196 q 122 538 42 457 q 176 613 161 576 q 190 711 190 650 m 261 168 q 427 124 363 124 q 615 165 492 124 q 776 207 738 207 q 844 183 815 207 q 889 158 872 158 q 920 183 906 158 q 935 227 935 207 q 899 267 935 247 q 864 333 864 288 q 872 386 864 350 q 881 432 881 422 q 858 454 881 454 q 814 447 849 454 q 763 439 779 439 q 641 475 697 439 q 585 556 585 511 q 610 611 585 575 q 669 681 635 647 q 750 792 750 757 q 701 879 750 828 q 504 957 621 957 q 383 932 443 957 q 261 783 261 881 q 284 686 261 736 q 307 612 307 636 q 288 563 307 588 q 223 495 269 538 q 144 414 176 453 q 113 361 113 375 q 261 168 113 233 m 294 269 q 282 346 282 301 q 303 438 282 390 q 351 502 324 485 q 400 519 379 519 q 525 433 439 519 q 611 293 611 347 q 450 221 611 221 q 294 269 314 221 m 393 344 q 398 332 393 344 q 425 304 403 319 q 478 289 447 289 q 510 299 510 289 q 465 359 510 310 q 397 408 421 408 q 383 389 383 408 q 393 344 383 369 m 615 774 q 615 741 615 774 q 562 669 615 707 q 482 631 508 631 q 422 672 456 631 q 388 782 388 714 q 414 863 388 846 q 501 881 440 881 q 585 864 563 881 q 615 774 615 842 m 533 761 q 539 784 539 768 q 525 809 539 800 q 506 818 511 818 q 485 774 485 818 q 500 731 485 731 q 533 761 515 731 z "},"'":{"ha":403,"x_min":42,"x_max":361,"o":"m 68 765 q 43 960 46 822 l 42 1099 l 361 1118 l 361 990 q 331 762 360 815 q 195 708 301 708 q 68 765 89 708 m 214 776 q 247 794 233 776 q 261 852 261 811 q 275 946 261 893 q 289 1016 289 999 q 273 1040 289 1033 q 209 1047 257 1047 q 143 1031 161 1047 q 125 946 125 1014 q 149 827 125 878 q 214 776 174 776 z "},"(":{"ha":504,"x_min":42,"x_max":463,"o":"m 219 -164 q 81 77 119 -49 q 42 403 42 203 q 42 414 42 408 q 57 688 42 606 q 128 881 72 771 q 219 1019 185 990 q 385 1058 265 1058 q 400 1058 393 1058 q 463 1044 463 1057 q 390 785 463 1022 q 335 411 333 599 q 346 238 335 325 q 411 -7 364 104 q 444 -110 433 -60 q 450 -160 451 -140 q 447 -179 450 -172 q 392 -219 436 -210 q 358 -222 375 -222 q 299 -212 329 -222 q 219 -164 249 -197 m 253 436 q 307 853 254 710 q 339 975 340 943 q 331 992 339 992 q 328 990 329 992 q 207 806 294 985 q 114 426 114 614 q 207 54 114 239 q 322 -117 288 -107 q 325 -117 324 -117 q 335 -100 335 -117 q 303 18 335 -69 q 253 424 253 158 q 253 436 253 429 z "},")":{"ha":508,"x_min":42,"x_max":468,"o":"m 42 -164 q 92 43 42 -100 q 127 212 113 103 q 142 415 142 321 q 127 619 142 510 q 82 815 113 728 q 44 957 51 901 q 42 983 43 971 q 58 1036 42 1018 q 142 1058 81 1058 q 320 941 236 1058 q 446 635 404 824 q 468 439 467 540 q 449 246 468 344 q 325 -87 413 47 q 231 -190 283 -151 q 122 -228 178 -228 q 50 -200 65 -228 q 42 -164 42 -186 m 289 72 q 376 432 374 263 q 376 439 376 436 q 229 904 376 658 q 179 971 194 963 q 157 981 165 979 q 144 963 144 981 q 175 832 144 933 q 218 665 206 729 q 243 431 243 526 q 228 231 243 336 q 179 10 214 125 q 146 -117 146 -99 q 171 -126 146 -126 q 218 -68 183 -126 q 289 72 253 -10 z "},"*":{"ha":615,"x_min":42,"x_max":575,"o":"m 476 975 l 490 975 q 549 956 532 975 q 575 851 574 928 q 563 805 575 818 q 519 792 551 792 q 488 780 488 792 q 512 740 488 768 q 536 685 536 711 q 475 619 536 643 q 306 593 414 594 q 118 640 136 593 q 110 690 110 661 q 117 735 110 719 q 124 763 124 751 q 93 792 124 792 q 52 798 63 792 q 42 826 42 804 q 60 918 42 847 q 93 973 69 951 q 144 994 117 994 q 189 1009 171 994 q 207 1044 207 1024 q 308 1096 207 1096 q 388 1082 365 1096 q 410 1033 410 1068 q 476 975 411 975 m 371 801 q 356 851 371 835 q 327 868 342 868 q 300 853 313 868 q 279 808 279 829 q 285 776 279 786 q 325 757 297 757 q 371 801 371 757 z "},"+":{"ha":825,"x_min":42,"x_max":783,"o":"m 413 136 q 363 136 413 136 q 296 152 314 136 q 278 253 278 168 q 261 356 278 339 q 159 374 244 374 q 58 392 74 374 q 42 508 42 410 q 58 626 42 607 q 159 644 74 644 q 261 661 244 644 q 278 763 278 678 q 296 865 278 849 q 413 881 314 881 q 529 865 511 881 q 547 763 547 849 q 564 661 547 678 q 666 644 581 644 q 767 626 751 644 q 783 508 783 607 q 767 392 783 410 q 666 374 751 374 q 564 356 581 374 q 547 253 547 339 q 529 152 547 168 q 413 136 511 136 m 431 201 q 441 201 431 201 q 466 233 451 201 q 481 336 481 265 q 497 424 481 407 q 592 440 514 440 q 693 454 669 440 q 717 508 717 468 q 693 563 717 549 q 592 576 669 576 q 497 593 514 576 q 481 681 481 610 q 466 783 481 751 q 431 815 451 815 q 394 786 410 815 q 372 694 378 757 q 346 610 367 631 q 258 583 325 589 q 167 560 192 576 q 143 508 143 544 q 167 456 143 472 q 258 434 192 440 q 346 407 325 428 q 372 323 367 386 q 394 231 378 260 q 431 201 410 201 z "},",":{"ha":417,"x_min":42,"x_max":375,"o":"m 49 -168 q 94 -87 49 -122 q 139 -47 139 -53 q 102 -39 139 -40 q 53 -20 65 -37 q 42 37 42 -3 q 44 122 42 76 l 56 283 q 375 304 161 290 l 375 89 q 360 -101 375 -47 q 297 -201 346 -154 q 149 -274 221 -274 q 54 -204 76 -274 q 49 -168 49 -185 m 243 -101 q 258 -84 243 -101 q 291 -16 274 -68 q 308 97 308 36 q 294 178 308 158 q 226 199 279 199 q 156 182 172 199 q 139 114 139 165 q 190 29 139 29 q 227 7 214 29 q 240 -53 240 -15 q 215 -125 240 -92 l 210 -133 q 243 -101 213 -133 z "},"-":{"ha":526,"x_min":42,"x_max":485,"o":"m 42 426 l 42 700 l 253 690 l 464 679 l 474 553 l 485 426 l 42 426 m 249 493 q 289 493 249 493 q 354 506 329 493 q 379 560 379 519 q 366 613 379 600 q 314 625 353 625 q 115 553 129 625 q 114 536 114 546 q 141 502 114 511 q 249 493 168 493 z "},".":{"ha":424,"x_min":42,"x_max":382,"o":"m 51 183 l 63 344 l 382 364 l 382 22 l 42 22 l 51 183 m 231 90 q 256 90 231 90 q 299 107 282 90 q 315 174 315 124 q 299 242 315 225 q 231 260 282 260 q 163 242 179 260 q 146 174 146 225 q 163 107 146 124 q 231 90 179 90 z "},"/":{"ha":481,"x_min":42,"x_max":439,"o":"m 42 41 q 42 50 42 41 q 44 77 42 60 q 61 181 47 94 q 133 488 75 267 q 203 757 190 708 q 231 852 215 806 q 256 916 247 899 q 281 949 265 933 q 310 969 297 965 q 360 976 324 972 q 379 978 371 978 q 415 971 401 978 q 439 911 436 961 q 439 896 439 904 q 426 782 439 850 q 344 422 411 703 q 252 76 276 140 q 194 3 228 13 q 143 0 182 0 q 91 0 104 0 q 64 6 78 0 q 47 17 50 11 q 42 41 43 22 m 161 142 q 142 142 147 175 q 140 121 140 133 q 140 110 140 115 q 151 74 140 74 q 153 74 151 74 q 167 100 165 76 q 161 142 168 124 m 194 276 q 183 294 188 293 q 175 271 178 294 l 174 257 q 174 246 174 251 q 185 210 174 210 q 188 210 186 210 q 201 239 201 213 q 201 251 201 244 q 194 276 199 264 m 228 413 q 210 413 214 446 l 208 392 q 208 381 208 386 q 219 344 208 344 q 221 344 219 344 q 234 371 233 347 q 228 413 235 394 m 263 547 q 250 565 256 564 q 243 542 244 565 l 242 528 q 242 515 242 522 q 253 479 242 479 q 254 481 254 479 q 268 506 267 483 q 263 547 269 529 m 296 683 q 278 683 282 717 l 275 663 q 275 651 275 657 q 286 615 275 615 q 288 615 286 615 q 301 642 300 618 q 296 683 303 665 m 329 818 q 318 836 322 835 q 310 813 313 836 q 308 782 308 794 q 319 750 308 750 q 322 750 321 750 q 336 781 336 753 q 336 793 336 786 q 329 818 333 806 z "},":":{"ha":424,"x_min":42,"x_max":382,"o":"m 51 629 l 63 790 l 382 810 l 382 468 l 42 468 l 51 629 m 231 536 q 256 536 231 536 q 299 553 282 536 q 315 620 315 569 q 299 688 315 671 q 231 706 282 706 q 163 688 179 706 q 146 620 146 671 q 163 553 146 569 q 231 536 179 536 m 51 183 l 63 344 l 382 364 l 382 22 l 42 22 l 51 183 m 231 90 q 256 90 231 90 q 299 107 282 90 q 315 174 315 124 q 299 242 315 225 q 231 260 282 260 q 163 242 179 260 q 146 174 146 225 q 163 107 146 124 q 231 90 179 90 z "},";":{"ha":424,"x_min":42,"x_max":382,"o":"m 49 -168 q 94 -87 49 -122 q 139 -47 139 -53 q 102 -39 139 -40 q 53 -20 65 -37 q 42 37 42 -3 q 44 122 42 76 l 56 283 q 375 304 161 290 l 375 89 q 360 -101 375 -47 q 297 -201 346 -154 q 149 -274 221 -274 q 54 -204 76 -274 q 49 -168 49 -185 m 243 -101 q 258 -84 243 -101 q 291 -16 274 -68 q 308 97 308 36 q 294 178 308 158 q 226 199 279 199 q 156 182 172 199 q 139 114 139 165 q 190 29 139 29 q 227 7 214 29 q 240 -53 240 -15 q 215 -125 240 -92 l 210 -133 q 243 -101 213 -133 m 51 629 l 63 790 l 382 810 l 382 468 l 42 468 l 51 629 m 231 536 q 256 536 231 536 q 299 553 282 536 q 315 620 315 569 q 299 688 315 671 q 231 706 282 706 q 163 688 179 706 q 146 620 146 671 q 163 553 146 569 q 231 536 179 536 z "},"<":{"ha":840,"x_min":42,"x_max":800,"o":"m 363 153 l 42 294 q 42 560 42 294 l 378 706 q 628 806 517 767 q 750 838 722 838 q 757 836 756 838 q 794 767 783 826 q 800 703 800 736 q 794 642 800 672 q 758 556 785 578 q 583 479 717 522 l 449 436 l 626 357 q 781 272 758 299 q 793 242 788 264 q 798 204 799 221 q 794 150 797 188 q 733 17 783 22 q 731 17 732 17 q 603 54 706 17 q 363 153 494 94 m 699 169 q 699 188 699 169 q 653 237 699 206 q 511 305 608 268 q 354 376 414 342 q 294 428 294 411 q 354 481 294 446 q 498 547 414 515 q 640 615 582 579 q 699 669 699 650 q 675 711 699 708 q 672 711 674 711 q 374 603 626 711 q 225 535 279 563 q 140 479 171 507 q 111 429 111 451 q 147 375 111 407 q 239 315 182 344 q 489 199 296 285 q 688 111 682 113 q 694 117 693 110 q 699 169 699 133 z "},"=":{"ha":814,"x_min":42,"x_max":772,"o":"m 76 164 l 76 433 l 408 424 l 739 413 l 754 288 l 772 164 l 76 164 m 530 235 q 552 238 530 235 q 590 254 574 240 q 607 301 607 268 q 586 346 607 333 q 505 358 565 358 q 375 356 444 358 q 190 271 190 346 q 232 238 190 246 q 380 229 274 229 q 530 235 486 229 m 42 540 l 42 810 l 372 800 l 704 789 l 719 665 l 738 540 l 42 540 m 494 611 q 516 614 494 611 q 554 631 538 617 q 571 669 571 644 q 567 704 571 693 q 551 722 563 715 q 470 736 531 736 q 365 733 410 736 q 281 725 319 731 q 218 711 243 719 q 156 649 156 692 q 197 615 156 624 q 344 606 239 606 q 494 611 450 606 z "},">":{"ha":842,"x_min":42,"x_max":800,"o":"m 42 147 q 64 284 42 257 q 213 360 86 311 l 382 424 l 213 486 q 63 558 85 532 q 42 696 42 585 q 83 843 42 843 q 83 843 83 843 q 213 800 101 843 q 464 696 324 757 l 800 550 l 800 293 l 464 147 q 167 26 242 51 q 83 0 92 0 q 42 147 42 0 m 689 369 q 717 421 717 396 q 653 501 717 461 q 451 598 590 540 q 256 676 311 656 q 165 704 200 697 q 133 710 146 708 q 119 707 124 710 q 110 682 110 701 q 311 546 110 625 q 497 446 444 494 q 514 422 514 431 q 454 367 514 404 q 311 297 394 331 q 110 164 110 218 q 110 163 110 163 q 119 136 110 143 q 133 133 124 133 q 165 138 146 133 q 378 215 221 150 q 599 313 536 281 q 689 369 663 344 z "},"?":{"ha":829,"x_min":42,"x_max":788,"o":"m 429 726 q 421 733 429 733 q 371 678 399 733 q 335 632 353 644 q 291 619 317 619 q 190 633 265 619 q 78 665 114 646 q 42 718 42 683 q 65 811 42 753 q 193 969 113 924 q 438 1015 274 1015 q 694 941 601 1015 q 788 726 788 867 q 765 605 788 649 q 674 503 743 561 q 585 408 604 444 q 565 308 565 371 q 567 221 565 246 l 574 33 l 235 33 l 235 253 q 252 456 235 400 q 349 601 269 511 q 429 726 429 692 m 387 101 q 410 101 387 101 q 452 117 433 101 q 471 169 471 132 q 452 221 471 206 q 387 236 433 236 q 321 221 340 236 q 301 169 301 206 q 321 117 301 132 q 387 101 340 101 m 569 542 q 707 721 707 682 q 707 724 707 722 q 647 844 707 779 q 450 936 529 926 q 235 871 338 936 q 133 729 133 806 q 170 708 133 708 q 244 724 207 708 q 290 761 282 739 q 424 811 308 811 q 517 797 497 811 q 538 742 538 783 q 508 649 538 701 q 438 558 479 597 q 366 481 396 518 q 336 433 336 444 q 363 404 336 404 q 569 542 429 404 z "},"@":{"ha":1069,"x_min":42,"x_max":1028,"o":"m 575 3 q 550 3 563 3 q 306 60 421 3 q 116 236 179 122 q 43 540 53 350 q 42 592 42 567 q 165 986 42 836 q 543 1150 301 1150 q 1028 676 1028 1150 q 967 397 1028 490 q 924 315 924 333 q 925 311 924 313 q 961 304 932 304 q 1018 263 1017 304 q 932 135 1018 206 q 849 78 894 103 q 575 3 718 8 m 660 203 q 682 218 682 213 q 656 229 682 225 l 558 233 q 539 233 549 233 q 426 217 426 233 q 440 203 426 211 q 540 175 485 175 q 660 203 594 175 m 708 794 q 701 832 708 825 q 678 829 693 839 q 653 770 663 819 q 643 670 643 721 q 639 574 643 619 q 611 426 629 475 q 597 365 597 389 q 619 326 597 335 q 685 307 665 308 q 699 317 699 307 q 678 353 699 328 q 661 429 661 372 q 682 604 661 493 q 708 794 707 739 m 542 539 q 563 671 563 618 q 549 739 563 714 q 522 758 539 758 q 490 743 508 758 q 424 567 438 699 q 419 493 419 525 q 442 394 419 421 q 461 383 451 383 q 508 442 483 383 q 542 539 528 485 m 332 481 q 349 625 339 531 q 351 679 351 658 q 340 721 351 721 l 336 718 q 306 615 317 697 q 301 533 301 574 q 306 454 301 493 q 315 419 310 419 q 332 481 322 419 m 828 778 q 825 778 826 778 q 768 558 799 763 q 757 467 758 493 q 761 451 757 451 q 793 485 769 454 q 831 575 817 515 q 843 685 843 631 q 828 778 843 778 m 660 947 q 663 954 663 951 q 635 974 663 967 q 578 978 615 978 q 550 976 565 978 q 488 972 490 975 q 493 964 485 968 q 564 940 501 960 q 631 918 626 919 q 632 917 632 918 q 660 947 642 917 z "},"A":{"ha":1126,"x_min":42,"x_max":1085,"o":"m 207 525 l 372 965 l 758 965 l 921 525 q 1085 42 1083 85 q 904 0 1085 0 q 751 13 789 0 q 699 68 713 25 q 617 132 682 122 q 542 135 593 135 q 461 121 490 135 q 422 66 432 107 q 374 13 411 25 q 222 0 338 0 q 42 42 42 0 q 207 525 42 85 m 335 135 q 362 179 343 165 q 422 198 381 193 q 554 203 464 203 q 686 198 644 203 q 747 179 728 193 q 772 141 765 165 q 787 104 778 117 q 810 83 796 92 q 888 68 836 68 l 985 68 l 864 397 q 716 803 743 728 q 660 896 689 878 q 564 914 632 914 q 467 896 496 914 q 413 803 439 878 q 264 397 386 729 l 143 68 l 231 68 q 335 135 317 67 m 432 368 q 426 394 426 376 q 442 476 426 424 q 503 636 465 561 q 565 711 542 711 q 608 674 585 711 q 649 576 632 636 q 674 475 665 515 q 682 403 682 432 q 668 363 682 375 q 579 339 640 339 q 478 347 518 339 q 432 368 439 356 m 550 407 q 581 493 581 407 q 568 542 581 540 q 549 507 561 542 q 532 438 532 463 q 550 407 532 411 z "},"B":{"ha":960,"x_min":42,"x_max":918,"o":"m 42 0 q 42 982 42 0 l 390 982 q 583 980 521 982 q 694 969 644 978 q 764 946 743 960 q 883 721 867 876 q 886 672 886 694 q 850 554 886 592 q 836 524 836 540 q 867 475 836 500 q 904 404 890 456 q 918 276 918 353 q 901 156 918 199 q 828 69 883 113 q 695 13 772 25 q 392 0 618 0 l 42 0 m 789 167 q 847 290 847 239 q 847 297 847 294 q 767 419 843 350 q 688 522 688 493 q 706 563 688 543 q 750 610 725 585 q 813 711 813 672 q 735 831 813 751 q 660 886 696 869 q 567 908 625 903 q 381 914 510 914 l 110 914 l 110 60 l 418 74 q 626 90 561 81 q 725 115 690 99 q 789 167 760 131 m 311 200 l 311 443 l 472 433 q 610 411 589 426 q 624 392 617 406 q 631 363 631 378 q 632 322 632 349 q 631 280 632 294 q 624 251 631 265 q 610 233 617 238 q 581 222 603 228 q 472 210 554 215 l 311 200 m 538 303 q 544 308 538 303 q 550 322 550 313 q 538 340 550 331 q 467 365 513 360 q 435 368 450 368 q 399 361 411 368 q 379 322 379 351 q 399 282 379 292 q 435 274 413 275 q 453 275 443 274 q 507 287 488 279 q 538 303 526 294 m 311 675 q 326 793 311 775 q 346 806 332 799 q 417 811 363 813 q 421 813 419 811 q 578 776 535 813 q 611 688 611 749 q 610 656 611 674 q 600 602 606 619 q 576 572 594 585 q 533 556 558 560 q 454 549 507 551 l 311 538 l 311 675 m 494 629 q 532 665 532 643 q 528 676 532 671 q 444 711 510 710 q 399 696 418 711 q 379 660 379 681 q 406 613 379 619 q 418 611 411 611 q 494 629 446 610 z "},"C":{"ha":1019,"x_min":42,"x_max":979,"o":"m 250 56 q 42 494 42 172 q 92 776 42 668 q 245 939 142 886 q 531 992 349 992 q 832 910 713 992 q 951 693 951 828 q 909 634 951 660 q 813 599 867 608 q 756 594 785 593 q 703 599 729 594 q 623 642 649 607 q 550 683 597 678 q 535 683 542 685 q 460 660 496 683 q 399 578 417 631 q 382 489 382 531 q 415 379 382 429 q 511 318 457 318 q 524 318 517 318 q 622 378 585 325 q 693 439 658 431 q 729 443 708 443 q 790 438 756 443 q 889 415 854 426 q 974 365 964 390 q 979 336 979 353 q 929 207 979 286 q 779 58 864 103 q 513 13 694 14 q 499 13 506 13 q 250 56 328 13 m 675 114 q 792 186 735 135 q 868 297 846 236 q 864 317 872 310 q 815 343 849 331 q 761 357 781 356 q 758 357 760 357 q 701 318 724 357 q 551 214 651 228 q 515 211 533 211 q 372 269 436 211 q 317 399 333 306 q 308 500 308 449 q 315 588 308 543 q 367 726 329 683 q 510 786 418 783 q 517 786 514 786 q 674 736 603 786 q 774 697 731 696 q 799 700 788 697 q 836 742 836 711 q 831 767 836 753 q 783 819 822 788 q 685 877 743 850 q 553 911 626 904 q 518 913 535 913 q 410 897 463 913 q 283 840 342 878 q 182 742 224 801 q 124 606 140 683 q 113 507 113 557 q 117 449 113 478 q 160 304 126 368 q 247 190 194 240 q 368 115 300 139 q 525 86 447 86 q 675 114 601 86 z "},"D":{"ha":975,"x_min":42,"x_max":936,"o":"m 42 0 q 42 988 42 0 l 361 988 q 683 965 633 988 q 786 893 733 942 q 915 660 878 811 q 935 493 936 576 q 922 354 935 425 q 803 113 892 200 q 720 51 758 68 q 613 26 682 33 q 378 11 544 18 l 42 0 m 838 599 q 759 780 818 700 q 613 887 700 860 q 319 917 526 914 l 110 919 l 110 74 l 313 74 q 490 88 396 74 q 631 122 583 103 q 766 233 711 156 q 839 404 821 311 q 847 496 847 449 q 838 599 847 546 m 311 210 l 311 785 l 426 785 q 599 723 549 785 q 649 524 649 661 q 631 324 649 386 q 572 235 614 261 q 446 210 529 210 l 311 210 m 465 299 q 540 328 531 319 q 565 431 550 336 q 575 522 574 486 q 569 564 575 549 q 516 647 558 603 q 447 704 474 690 q 426 711 436 711 q 406 701 415 711 q 384 635 389 683 q 379 460 379 588 q 389 307 379 333 q 419 290 394 292 q 465 299 438 290 z "},"E":{"ha":921,"x_min":42,"x_max":881,"o":"m 119 14 q 89 21 119 14 q 51 45 58 28 q 43 204 44 63 q 42 310 42 254 q 44 526 42 410 l 54 965 q 881 983 467 975 l 881 711 l 644 711 q 476 701 543 711 q 408 676 408 692 q 517 647 408 657 q 629 643 568 643 l 850 643 q 829 389 839 517 l 618 379 q 454 360 500 374 q 408 319 408 347 q 457 281 408 292 q 644 271 506 271 l 881 271 l 881 0 l 474 0 q 119 14 181 0 m 813 135 q 806 173 813 164 q 791 186 799 182 q 775 192 783 190 q 752 197 767 194 q 722 200 738 199 q 683 201 707 201 q 576 203 647 203 l 340 203 l 340 474 l 543 474 q 726 493 693 474 q 744 525 744 504 q 702 565 744 554 q 540 575 660 575 l 336 575 l 347 685 q 351 732 350 718 q 363 763 351 746 q 381 783 374 779 q 421 794 389 788 q 478 801 453 800 q 595 807 504 803 q 733 824 686 811 q 779 866 779 838 q 715 904 779 894 q 458 914 651 914 l 139 914 l 139 68 l 475 68 q 762 78 711 68 q 813 135 813 88 z "},"F":{"ha":825,"x_min":42,"x_max":783,"o":"m 42 0 q 42 982 42 0 q 783 982 42 982 q 783 711 783 982 l 582 711 q 422 699 465 711 q 379 676 379 686 q 428 653 379 663 q 552 643 478 643 q 660 638 626 643 q 710 615 694 632 q 738 551 726 599 q 749 465 749 500 q 726 410 749 431 q 549 372 685 372 l 379 372 l 379 0 l 42 0 m 311 254 l 311 440 l 481 440 q 613 451 576 440 q 649 490 649 463 q 581 536 649 528 q 481 542 544 540 l 311 542 l 311 775 l 506 785 q 686 817 651 792 q 710 854 706 831 q 711 864 711 860 q 668 904 711 894 q 415 914 619 914 l 110 914 l 110 68 l 210 68 q 298 92 285 68 q 311 254 311 117 z "},"G":{"ha":1071,"x_min":42,"x_max":1031,"o":"m 42 472 q 179 826 46 707 q 574 944 313 944 q 885 878 775 944 q 996 682 996 810 q 974 622 996 640 q 883 596 951 604 q 810 586 815 588 q 817 582 806 585 q 904 578 831 581 l 1031 572 l 1031 96 l 886 31 q 543 -36 740 -36 q 539 -36 540 -36 q 233 32 339 -35 q 42 458 42 154 q 42 472 42 465 m 922 328 l 932 504 l 763 504 q 630 494 668 504 q 592 456 592 483 q 618 418 592 435 q 692 396 644 401 q 768 358 739 390 q 792 300 792 332 q 790 285 792 293 q 740 211 783 243 q 576 168 682 168 q 558 168 568 168 q 383 222 439 172 q 338 313 354 249 q 319 446 321 376 q 319 453 319 450 q 333 582 319 518 q 378 679 349 649 q 538 740 425 732 q 569 742 553 742 q 722 703 661 742 q 785 682 749 686 q 806 681 796 681 q 847 688 829 681 q 883 706 875 699 q 883 727 890 714 q 846 774 876 740 q 663 863 782 844 q 586 868 625 868 q 419 842 504 868 q 217 721 294 803 q 152 616 168 669 q 136 451 136 563 q 154 287 136 339 q 223 181 172 235 q 324 94 274 128 q 403 53 374 60 q 488 44 439 44 q 614 54 542 44 q 816 103 750 72 q 899 174 882 135 q 922 328 915 214 m 660 268 q 681 290 682 282 q 668 299 681 296 l 617 301 q 553 310 569 301 q 532 335 536 318 q 526 374 528 353 q 524 437 524 396 q 526 499 524 478 q 532 538 528 521 q 547 561 536 556 q 606 573 569 572 q 654 574 642 574 q 676 577 667 575 q 688 581 686 579 q 685 590 689 583 q 639 628 679 599 q 574 667 599 658 q 554 669 564 669 q 524 661 539 669 q 454 603 499 649 q 396 496 410 558 q 392 446 390 469 q 403 381 392 411 q 459 286 422 328 q 550 240 496 244 q 563 239 557 240 q 660 268 611 240 z "},"H":{"ha":993,"x_min":42,"x_max":953,"o":"m 42 0 q 42 982 42 0 q 379 982 42 982 l 379 829 q 394 696 379 715 q 497 676 408 676 q 600 696 585 676 q 615 829 615 715 l 615 982 l 953 982 q 953 0 953 982 q 615 0 953 0 q 615 372 615 0 q 379 372 615 372 q 379 0 379 372 q 42 0 379 0 m 311 254 l 311 440 q 682 440 311 440 l 682 254 q 695 92 682 115 q 783 68 708 68 l 885 68 l 885 914 l 785 914 q 699 892 713 914 q 682 834 685 872 q 676 753 679 796 l 665 592 l 328 592 l 318 753 q 307 861 313 842 q 295 890 301 881 q 283 903 289 900 q 264 910 276 907 q 208 914 249 914 l 110 914 l 110 68 l 210 68 q 298 92 285 68 q 311 254 311 115 z "},"I":{"ha":436,"x_min":42,"x_max":396,"o":"m 42 0 q 42 989 42 0 q 396 968 218 979 q 396 21 396 968 q 42 0 218 10 m 311 71 q 311 917 311 71 q 110 917 311 917 q 110 71 110 917 q 311 71 110 71 z "},"J":{"ha":857,"x_min":42,"x_max":817,"o":"m 78 100 q 42 246 42 161 q 63 339 42 321 q 167 372 83 358 q 279 385 236 383 q 296 383 288 385 q 359 363 340 381 q 378 301 378 346 q 403 260 378 260 q 404 260 403 260 q 458 335 438 263 q 472 466 467 367 q 479 674 478 565 l 479 936 l 817 936 l 817 544 q 813 270 817 363 q 794 153 808 178 q 767 108 781 129 q 703 39 753 88 q 604 -28 654 -10 q 465 -44 556 -44 q 460 -44 463 -44 q 293 -33 365 -44 q 193 -4 221 -21 q 78 100 114 40 m 479 33 q 576 71 525 44 q 658 138 626 97 q 710 246 689 179 q 749 622 749 372 l 749 868 l 547 868 l 547 554 q 503 196 547 239 q 419 158 467 160 q 400 160 410 158 q 312 222 340 168 q 218 290 283 276 q 188 294 201 294 q 129 265 147 294 q 124 246 125 257 q 168 157 124 214 q 285 57 226 81 q 389 28 343 33 q 419 26 404 26 q 479 33 449 26 z "},"K":{"ha":1094,"x_min":42,"x_max":1053,"o":"m 42 0 q 42 982 42 0 q 379 982 42 982 q 380 855 379 947 q 382 728 381 763 l 490 854 q 535 906 519 889 q 574 941 551 924 q 612 964 597 958 q 660 975 626 969 q 782 982 699 982 q 903 979 865 982 q 968 971 940 976 q 1006 953 996 965 q 1015 926 1015 942 q 997 886 1015 911 q 897 773 964 839 q 790 659 829 707 q 750 598 750 611 q 794 502 750 585 q 901 316 839 419 q 1008 129 964 213 q 1053 33 1053 46 q 991 10 1053 19 q 840 0 929 0 l 628 0 l 553 156 q 483 274 506 253 q 459 285 472 285 q 433 274 446 285 q 394 207 408 253 q 379 114 379 161 l 379 0 l 42 0 m 295 86 q 301 92 295 86 q 310 118 307 99 q 313 179 313 138 q 329 268 313 221 q 371 353 346 315 q 427 415 396 390 q 488 440 458 440 q 572 347 514 440 q 642 217 600 304 q 717 99 685 131 q 804 68 750 68 q 918 84 918 68 q 838 233 918 100 q 732 412 757 367 q 689 494 707 457 q 649 600 650 576 q 685 678 649 624 q 774 786 722 732 l 899 914 l 782 914 q 662 883 707 914 q 546 764 617 853 q 424 625 475 675 q 354 575 372 575 q 311 744 311 575 q 308 860 311 839 q 298 891 304 881 q 286 904 292 901 q 268 910 281 907 q 210 914 254 914 l 110 914 l 110 68 l 210 68 q 265 71 247 68 q 295 86 283 74 z "},"L":{"ha":888,"x_min":42,"x_max":846,"o":"m 118 44 q 88 51 118 44 q 51 76 58 58 q 43 235 44 93 q 42 340 42 285 q 44 557 42 440 l 54 996 q 407 1015 231 1006 l 407 336 l 846 336 l 846 31 l 457 31 q 118 44 178 31 m 744 165 q 710 222 744 208 q 551 240 676 235 l 357 251 q 338 944 347 599 l 139 944 l 139 99 l 442 99 q 690 108 647 99 q 738 128 732 117 q 744 165 744 140 z "},"M":{"ha":1174,"x_min":42,"x_max":1133,"o":"m 53 44 q 43 206 46 64 q 42 318 42 260 q 44 529 42 415 l 54 967 l 499 986 l 589 564 l 694 967 l 1133 967 l 1133 19 l 846 -1 l 840 425 l 740 3 l 592 3 q 461 19 482 3 q 443 42 454 25 q 419 129 432 61 l 393 256 l 375 138 q 339 35 363 53 q 285 15 319 18 q 214 8 251 11 q 165 7 188 7 q 53 44 67 7 m 262 120 q 266 139 262 120 q 271 213 269 158 q 272 380 272 268 q 274 551 272 492 q 283 649 276 611 q 298 699 289 686 q 324 713 307 713 q 353 703 342 714 q 385 642 365 693 q 483 272 411 569 q 534 124 510 167 q 596 76 558 82 q 615 76 606 72 q 631 81 624 79 q 645 92 638 82 q 658 111 653 101 q 672 141 664 121 q 686 182 679 161 q 703 236 693 203 q 742 390 718 294 q 867 714 819 713 q 904 648 894 714 q 914 374 914 582 q 924 118 914 167 q 976 69 933 69 q 1029 96 1018 69 q 1049 493 1049 139 l 1049 915 l 915 915 q 796 897 819 915 q 766 852 775 882 q 731 720 757 822 q 678 518 704 618 q 603 379 642 379 q 525 500 565 379 q 486 636 506 556 l 421 899 l 139 919 l 139 494 q 150 118 139 163 q 190 71 161 74 q 213 69 196 69 q 242 76 231 69 q 262 120 254 82 z "},"N":{"ha":993,"x_min":42,"x_max":953,"o":"m 42 0 l 42 982 l 207 982 q 276 981 256 982 q 326 973 297 981 q 365 958 354 965 q 399 926 376 951 q 438 878 422 901 q 485 804 453 856 l 599 626 l 618 982 l 953 982 l 953 0 l 788 0 q 717 0 739 0 q 667 8 696 0 q 628 22 639 15 q 594 55 618 29 q 556 103 571 81 q 508 178 542 126 l 396 354 l 375 0 l 42 0 m 193 68 q 266 100 254 68 q 278 259 278 132 q 283 438 278 386 q 302 517 289 490 q 335 544 315 544 q 386 517 356 544 q 528 334 443 467 q 652 153 614 201 q 721 87 690 106 q 792 68 751 68 l 885 68 l 885 914 l 800 914 q 728 882 739 914 q 717 723 717 850 q 710 544 717 596 q 691 465 704 492 q 658 438 678 438 q 607 464 638 438 q 451 669 550 514 q 306 869 351 825 q 201 914 260 913 l 110 914 l 110 68 l 193 68 z "},"O":{"ha":1067,"x_min":42,"x_max":1025,"o":"m 96 215 q 42 497 42 319 q 93 771 42 669 q 199 888 128 839 q 356 960 271 938 q 536 985 440 983 q 544 985 540 985 q 717 964 636 985 q 872 894 801 942 q 978 779 943 847 q 1025 499 1025 688 q 976 206 1025 301 q 911 121 956 165 q 826 56 867 76 q 538 7 733 7 q 533 7 535 7 q 243 57 335 7 q 163 124 206 78 q 96 215 119 171 m 842 210 q 925 324 907 275 q 943 488 943 374 q 927 656 943 603 q 863 763 911 710 q 657 888 775 856 q 538 906 597 904 q 421 889 479 906 q 215 764 303 856 q 149 658 165 711 q 133 492 133 604 q 151 328 133 379 q 242 200 169 276 q 389 100 314 124 q 500 86 433 86 q 601 93 546 86 q 842 210 740 108 m 531 210 q 373 271 426 211 q 319 504 319 331 q 334 653 319 610 q 387 724 349 697 q 467 767 425 751 q 538 782 510 782 q 609 767 567 782 q 682 731 651 751 q 751 600 731 697 q 764 488 764 544 q 757 404 764 446 q 696 264 742 306 q 538 210 636 210 q 531 210 533 210 m 665 588 q 539 664 629 665 q 453 645 481 664 q 407 572 425 626 q 392 488 392 528 q 431 369 392 424 q 546 303 478 304 q 551 304 549 303 q 663 408 624 307 q 683 508 683 461 q 665 588 682 550 z "},"P":{"ha":921,"x_min":42,"x_max":879,"o":"m 51 54 q 43 214 44 72 q 42 319 42 264 q 44 536 42 419 l 54 975 l 376 985 q 518 986 458 988 q 660 981 617 986 q 788 924 729 971 q 863 833 847 878 q 879 683 879 789 q 802 430 879 511 q 561 349 725 349 l 408 349 l 408 10 l 238 10 q 51 54 68 10 m 340 247 l 340 417 l 460 417 q 629 446 553 417 q 749 525 706 475 q 804 640 792 575 q 808 675 808 658 q 783 775 808 724 q 649 890 746 857 q 356 924 553 924 l 139 924 l 139 78 l 239 78 q 307 84 294 78 q 326 101 319 90 q 335 120 333 111 q 338 151 336 129 q 340 247 340 175 m 345 569 q 343 579 345 569 q 341 610 342 589 q 340 674 340 632 q 342 740 340 715 q 347 783 343 764 q 361 810 351 801 q 422 822 381 822 q 570 790 531 822 q 610 684 610 758 q 592 578 610 610 q 535 532 575 546 q 449 518 496 518 q 390 519 401 518 q 368 527 378 521 q 353 542 358 533 q 345 569 349 550 m 518 663 q 520 673 518 663 q 507 697 522 683 q 472 713 492 710 q 442 715 453 717 q 424 708 431 714 q 408 669 408 697 q 433 631 408 642 q 459 625 446 625 q 486 631 472 625 q 518 663 514 642 z "},"Q":{"ha":1097,"x_min":42,"x_max":1057,"o":"m 811 -19 q 713 6 783 -4 q 608 13 661 13 q 568 11 589 13 q 524 10 546 10 q 101 221 215 10 q 42 499 42 332 q 169 865 42 740 q 554 989 296 989 q 926 856 813 989 q 1025 507 1025 740 q 1022 426 1025 468 q 1018 315 1018 368 q 1019 242 1018 276 q 1039 147 1025 161 q 1056 99 1053 133 q 1057 79 1057 89 q 1050 28 1057 53 q 965 -57 1032 -44 q 938 -60 951 -60 q 811 -19 882 -60 m 961 64 q 945 91 961 72 q 906 126 929 110 q 875 152 883 143 q 867 181 867 161 q 876 224 867 201 q 911 299 886 247 q 947 410 936 351 q 956 493 956 453 q 954 522 956 508 q 935 627 950 576 q 891 721 919 678 q 826 801 863 764 q 744 862 790 838 q 647 900 697 886 q 551 913 600 913 q 425 893 490 913 q 206 753 275 847 q 136 500 136 658 q 151 344 136 401 q 203 243 165 286 q 399 115 282 154 q 561 89 478 88 q 642 94 600 89 q 728 101 686 101 q 764 100 746 101 q 849 81 822 96 q 940 43 913 44 q 961 64 961 44 m 376 272 q 321 508 321 335 q 335 658 321 614 q 388 728 350 701 q 469 771 426 756 q 540 786 511 786 q 612 771 569 786 q 692 728 654 756 q 745 656 731 701 q 760 511 760 611 q 755 375 760 411 q 737 326 750 339 q 694 313 724 313 q 644 298 664 313 q 625 262 625 283 q 606 227 625 240 q 557 213 586 214 q 539 211 547 213 q 494 215 518 211 q 376 272 418 226 m 603 435 q 647 429 629 428 q 689 451 682 429 q 692 471 692 460 q 660 599 692 511 q 554 692 624 692 q 550 692 551 692 q 426 611 478 689 q 394 497 393 560 q 403 429 394 465 q 429 361 418 367 q 432 361 431 361 q 467 393 443 361 q 524 439 493 431 q 551 443 536 442 q 603 435 574 442 z "},"R":{"ha":1019,"x_min":42,"x_max":979,"o":"m 42 1013 l 397 1013 q 692 1003 646 1013 q 751 990 738 994 q 781 975 764 985 q 836 929 803 963 q 918 736 911 853 q 918 717 918 726 q 857 538 918 613 q 831 505 839 515 q 819 476 824 494 q 815 448 814 458 q 828 411 817 438 q 876 314 839 381 q 926 222 913 247 q 953 168 940 196 q 971 125 965 140 q 978 92 976 110 q 976 67 979 75 q 963 51 974 60 q 939 40 951 43 q 901 35 926 38 q 793 31 871 31 q 792 31 793 31 l 599 31 q 396 419 497 225 q 375 31 386 225 l 42 31 l 42 1013 m 396 471 q 418 471 396 471 q 478 432 440 471 q 581 279 517 393 q 682 132 646 165 q 782 99 718 99 l 881 99 l 796 251 q 726 358 761 314 q 679 403 692 403 q 647 432 647 403 q 650 453 647 440 q 726 548 664 507 q 803 624 788 589 q 814 689 814 649 q 813 721 814 704 q 792 819 807 785 q 747 879 776 854 q 665 918 717 904 q 371 944 567 944 l 110 944 l 110 99 l 210 99 q 248 100 236 99 q 274 103 260 101 q 292 115 288 104 q 303 133 297 125 q 309 168 308 142 q 310 216 310 194 q 311 285 311 238 q 312 360 311 333 q 316 410 313 386 q 324 443 319 433 q 338 461 328 453 q 396 471 351 471 m 311 568 l 311 847 l 451 836 q 624 774 572 828 q 650 713 650 746 q 628 649 650 682 q 451 579 590 589 l 311 568 m 406 643 q 418 642 411 642 q 493 660 444 642 q 546 704 546 681 q 544 713 546 708 q 464 742 533 742 q 402 728 425 742 q 379 682 379 714 q 406 643 379 650 z "},"S":{"ha":975,"x_min":39,"x_max":936,"o":"m 76 226 q 39 347 39 300 q 92 426 39 404 q 172 440 126 440 l 278 440 l 174 528 q 68 717 69 617 q 172 921 68 817 q 215 963 200 949 q 253 990 231 976 q 292 1007 276 1003 q 344 1014 308 1011 q 378 1014 357 1015 q 510 1010 425 1014 q 788 947 703 999 q 886 779 874 894 q 888 754 888 765 q 885 725 888 736 q 858 696 878 707 q 779 673 838 685 q 719 656 721 661 q 728 646 718 651 q 780 626 739 640 q 863 558 821 613 q 924 433 906 504 q 936 353 935 389 q 932 313 936 332 q 885 208 921 263 q 796 110 849 154 q 685 50 743 65 q 529 35 629 35 q 519 35 525 35 q 324 51 411 36 q 201 85 238 65 q 76 226 128 125 m 533 611 q 389 669 421 644 q 357 745 357 693 q 376 815 357 797 q 453 839 396 833 q 489 840 472 840 q 608 797 572 840 q 663 760 626 775 q 742 744 699 744 q 793 756 785 744 q 796 764 796 758 q 778 814 796 779 q 696 891 753 860 q 572 931 639 922 q 508 935 540 935 q 433 929 472 935 q 303 894 361 919 q 208 825 246 869 q 171 728 171 781 q 242 593 171 651 q 458 492 314 535 q 643 399 601 450 q 663 342 663 374 q 642 268 663 308 q 586 219 625 236 q 508 203 549 203 q 506 203 507 203 q 419 221 463 203 q 349 271 376 239 q 269 322 321 303 q 188 340 224 340 q 178 340 182 340 q 138 311 138 338 q 219 208 138 278 q 357 125 300 139 q 461 111 407 113 q 586 126 521 111 q 769 222 713 157 q 842 375 842 304 q 533 611 843 519 m 575 339 q 567 372 575 372 q 457 401 558 372 q 358 425 376 425 q 353 422 353 425 q 396 365 353 414 q 513 306 442 315 q 525 306 519 306 q 575 339 572 306 m 524 721 q 529 726 524 721 q 525 744 533 731 q 501 768 517 758 q 473 778 486 778 q 450 768 460 778 q 440 744 440 758 q 456 721 440 731 q 493 711 471 711 q 524 721 515 711 z "},"T":{"ha":993,"x_min":42,"x_max":953,"o":"m 311 10 q 311 690 311 10 q 42 690 311 690 q 42 994 42 690 q 953 994 42 994 q 953 690 953 994 q 685 690 953 690 q 665 31 672 250 q 488 20 607 28 q 311 10 369 13 m 585 290 l 599 775 l 725 785 q 840 819 819 793 q 851 867 851 835 q 824 910 851 899 q 519 926 782 926 l 481 926 q 144 913 192 926 q 110 851 110 892 q 133 804 110 817 q 217 792 158 792 q 295 790 275 792 q 336 781 315 789 q 367 765 357 774 q 387 731 376 756 q 401 683 397 707 q 408 610 406 658 q 413 350 413 547 q 424 118 413 153 q 471 82 435 83 l 496 81 q 557 97 544 81 q 585 290 579 125 z "},"U":{"ha":993,"x_min":42,"x_max":951,"o":"m 43 614 l 42 994 q 379 994 42 994 l 379 710 q 388 447 379 515 q 412 358 397 379 q 445 327 426 336 q 497 318 464 318 q 549 327 529 318 q 583 358 568 336 q 603 426 597 379 q 615 710 615 515 l 615 994 l 951 994 l 951 640 q 946 397 951 486 q 920 240 940 307 q 869 138 900 174 q 783 69 839 101 q 504 15 701 21 q 458 14 481 14 q 228 53 297 14 q 158 97 185 76 q 108 149 131 117 q 74 215 86 181 q 56 310 63 250 q 43 614 43 404 m 781 197 q 840 278 824 240 q 865 383 857 317 q 879 606 874 450 l 892 926 l 685 926 l 675 597 q 655 306 668 349 q 603 247 642 264 l 574 236 q 493 222 532 222 q 397 243 444 222 q 338 287 356 263 q 317 356 319 311 q 311 604 311 446 l 311 926 l 103 926 l 115 608 q 138 329 124 399 q 214 195 153 260 q 383 103 275 131 q 496 88 440 89 q 600 100 547 88 q 781 197 708 125 z "},"V":{"ha":1126,"x_min":42,"x_max":1086,"o":"m 350 51 q 135 643 229 378 q 42 928 42 908 q 96 949 42 940 q 225 960 150 958 l 410 960 q 571 435 490 697 q 726 960 649 697 l 907 960 q 1086 917 1086 960 q 924 435 1086 878 l 763 -6 l 571 -15 q 486 -21 522 -19 q 379 1 406 -21 q 350 51 364 14 m 578 46 q 605 46 578 46 q 660 63 632 46 q 716 156 689 81 q 864 564 743 231 l 985 896 l 894 885 q 826 857 849 879 q 786 794 803 835 q 710 569 756 719 q 626 334 665 419 q 567 249 588 249 q 510 335 547 249 q 443 522 472 422 q 404 654 414 622 q 383 721 394 686 q 365 775 371 756 q 349 815 358 794 q 333 846 339 836 q 319 866 328 856 q 303 880 310 876 q 285 888 296 883 q 239 892 271 892 l 144 892 l 249 613 q 387 235 353 333 q 433 111 421 136 q 463 69 444 86 q 503 49 482 53 q 578 46 524 46 z "},"W":{"ha":1392,"x_min":42,"x_max":1350,"o":"m 229 24 q 124 483 207 92 q 42 908 42 875 q 77 953 42 942 q 208 965 113 964 l 375 965 q 406 821 385 917 q 436 676 426 725 l 476 778 q 531 922 517 879 q 586 953 538 942 q 711 965 635 964 l 876 965 l 918 804 q 961 681 950 683 q 976 703 968 679 q 994 795 983 726 q 1008 876 1006 864 q 1014 904 1011 888 q 1023 927 1017 921 q 1033 942 1029 933 q 1050 953 1038 951 q 1071 960 1063 956 q 1101 964 1079 964 q 1140 964 1124 964 q 1224 965 1156 964 q 1315 954 1293 965 q 1350 876 1350 939 q 1350 857 1350 867 q 1261 406 1344 778 l 1171 0 q 997 -10 1113 -3 q 824 -21 881 -17 l 769 164 q 713 394 717 349 q 701 383 711 408 q 653 219 683 339 l 594 0 l 419 -10 q 358 -12 386 -11 q 229 24 240 -12 m 418 51 q 443 51 418 51 q 492 74 468 51 q 547 200 517 96 q 614 449 576 304 q 693 592 651 592 q 735 560 714 592 q 869 144 792 474 q 907 70 883 89 q 987 51 931 51 q 1068 67 1043 51 q 1103 126 1093 83 q 1205 597 1154 353 q 1256 857 1256 842 q 1244 879 1256 872 q 1172 897 1219 896 q 1106 882 1125 897 q 1088 831 1088 867 q 1067 661 1088 758 q 1018 494 1046 564 q 969 424 990 424 q 921 478 949 424 q 853 672 893 532 q 800 854 814 813 q 765 885 794 872 q 699 897 735 897 q 635 885 664 897 q 600 854 606 872 q 540 648 586 813 q 461 443 494 483 q 435 426 447 426 q 343 660 385 426 q 294 858 314 821 q 253 894 279 889 q 220 897 240 897 q 182 893 200 897 q 143 868 143 885 q 227 464 143 839 q 311 69 311 89 q 340 56 311 61 q 418 51 368 51 z "},"X":{"ha":1128,"x_min":42,"x_max":1088,"o":"m 99 32 q 42 56 42 42 q 81 140 42 69 q 176 298 121 211 q 272 455 232 385 q 311 535 311 525 q 296 575 311 546 q 215 712 261 642 q 151 808 168 782 q 118 862 133 835 q 95 906 103 889 q 84 938 88 922 q 83 963 81 954 q 94 981 85 972 q 117 993 104 989 q 151 1000 129 997 q 266 1004 185 1004 q 386 997 347 1004 q 449 970 425 990 q 507 897 474 950 l 574 792 l 629 897 q 678 972 657 951 q 725 996 700 992 q 849 1004 775 1004 q 965 1000 924 1004 q 1053 967 1053 990 q 1017 883 1053 951 q 943 750 982 814 q 893 669 904 686 q 867 622 882 653 q 848 582 853 592 q 840 545 843 572 q 838 510 838 518 q 849 472 839 501 q 866 431 858 443 q 896 381 874 418 q 933 321 918 343 q 967 272 949 299 q 986 243 986 244 q 1059 126 1031 178 q 1088 58 1088 74 q 1033 33 1088 43 q 908 22 979 22 q 811 23 838 22 q 756 28 785 24 q 715 39 726 33 q 687 61 704 44 q 660 94 669 78 q 633 144 651 110 l 568 265 l 499 144 q 469 94 479 111 q 442 62 460 78 q 413 40 425 46 q 372 29 401 35 q 246 24 338 24 q 243 24 244 24 q 99 32 154 24 m 260 90 q 415 203 344 90 q 539 350 486 315 q 570 361 556 361 q 624 322 585 361 q 705 217 664 282 q 784 121 746 151 q 876 90 822 90 q 936 107 936 90 q 897 196 936 125 q 801 354 854 276 q 735 465 749 432 q 722 522 724 492 q 724 539 722 531 q 749 621 728 581 q 841 769 769 661 q 913 908 913 876 q 840 936 913 936 q 763 905 799 936 q 697 819 728 874 q 642 733 665 765 q 567 665 590 665 q 509 706 543 665 q 441 812 475 746 q 374 907 407 878 q 294 936 342 936 q 228 931 246 936 q 210 921 210 925 q 292 776 210 906 q 393 593 375 646 q 406 528 406 558 q 401 494 406 511 q 333 363 390 449 q 232 196 275 276 q 193 107 193 124 q 260 90 193 90 z "},"Y":{"ha":1128,"x_min":42,"x_max":1088,"o":"m 379 204 q 368 360 379 306 q 326 476 357 415 q 217 650 294 536 q 91 848 140 764 q 42 947 42 932 q 94 972 42 961 q 213 982 147 982 q 305 981 279 982 q 358 976 331 981 q 399 965 386 971 q 428 943 411 960 q 501 834 449 924 q 565 744 554 744 q 619 819 575 744 q 674 911 663 894 q 701 944 685 928 q 731 965 718 960 q 771 975 743 971 q 893 981 806 981 q 1034 972 981 982 q 1088 947 1088 961 q 1038 848 1088 932 q 911 650 988 764 q 803 476 835 536 q 761 360 772 415 q 750 204 750 306 l 750 0 l 379 0 l 379 204 m 649 271 q 726 542 649 424 q 881 788 804 660 l 958 914 l 872 914 q 785 881 822 914 q 705 774 749 849 q 622 654 661 699 q 564 610 582 610 q 507 654 546 610 q 424 774 468 699 q 343 881 381 849 q 257 914 306 914 l 171 914 l 247 788 q 401 542 324 661 q 463 410 444 478 q 481 271 481 343 q 481 174 481 199 q 484 126 481 149 q 492 94 488 103 q 507 77 496 85 q 530 69 518 69 q 564 68 542 68 q 598 69 586 68 q 621 77 610 69 q 636 94 632 85 q 644 126 640 103 q 649 271 649 156 z "},"Z":{"ha":1026,"x_min":42,"x_max":986,"o":"m 64 22 q 42 153 42 44 q 89 272 42 201 q 267 476 136 342 l 492 711 l 110 711 l 110 982 l 532 982 q 876 972 790 982 q 974 931 963 961 q 983 876 983 904 q 951 764 983 825 q 749 499 903 669 l 542 271 l 986 271 l 986 0 l 536 0 q 154 9 240 0 q 64 22 68 18 m 202 78 q 224 75 202 78 q 310 69 246 71 q 588 68 374 68 q 850 82 803 68 q 886 135 886 93 q 882 161 886 147 q 847 192 876 183 q 649 203 810 203 q 413 242 413 203 q 482 347 413 258 q 649 544 551 436 q 815 744 746 651 q 885 858 885 838 q 873 888 885 878 q 819 904 861 897 q 604 914 754 914 q 403 913 454 914 q 310 910 351 913 q 244 903 268 907 q 204 894 219 900 q 178 863 176 885 q 219 823 178 833 q 359 813 261 813 q 502 808 457 813 q 574 788 547 803 q 600 749 600 772 q 574 685 600 726 q 408 482 533 617 q 213 253 283 347 q 143 133 143 158 q 151 97 143 108 q 202 78 158 86 z "},"[":{"ha":554,"x_min":42,"x_max":514,"o":"m 42 -187 q 42 1031 42 -187 q 514 1031 42 1031 l 514 896 q 512 823 514 847 q 500 783 510 799 q 475 763 490 767 q 420 760 460 760 q 368 744 381 760 q 346 568 347 719 q 346 345 346 528 q 356 125 346 163 q 399 85 367 88 q 429 83 407 83 q 500 61 486 83 q 514 -53 514 39 l 514 -187 l 42 -187 m 413 -53 q 346 15 413 15 q 297 40 308 15 q 278 410 278 82 q 292 789 278 738 q 346 828 315 828 q 413 893 413 828 q 413 896 413 894 q 388 950 413 938 q 278 963 363 963 l 143 963 l 143 -119 l 278 -119 q 388 -107 363 -119 q 413 -53 413 -94 z "},"\\":{"ha":483,"x_min":42,"x_max":443,"o":"m 203 236 q 114 596 188 296 q 42 939 42 893 q 69 969 42 957 q 146 982 97 982 q 214 963 194 982 q 290 764 246 932 q 443 86 439 206 q 443 78 443 82 q 406 6 443 17 q 345 0 389 0 q 282 19 301 0 q 203 236 250 53 m 321 242 q 265 494 297 360 q 210 715 233 628 q 151 899 160 899 q 149 888 149 899 q 231 493 149 831 q 311 192 285 269 q 339 118 335 118 q 340 124 340 118 q 321 242 340 146 z "},"]":{"ha":521,"x_min":53,"x_max":492,"o":"m 53 -54 q 65 56 53 31 q 123 82 78 82 q 178 133 168 82 q 188 420 188 183 q 178 708 188 657 q 123 758 168 758 q 65 783 78 758 q 53 894 53 808 l 53 1029 l 492 1029 l 492 -189 l 53 -189 l 53 -54 m 424 -121 l 424 961 l 272 961 q 157 944 199 961 q 115 901 115 928 q 206 826 115 861 q 256 800 242 813 q 286 629 286 772 q 281 344 286 553 q 263 82 275 136 q 196 21 251 28 q 121 -56 121 10 q 149 -109 121 -97 q 272 -121 176 -121 l 424 -121 z "},"^":{"ha":808,"x_min":42,"x_max":767,"o":"m 43 532 q 42 540 42 533 q 203 928 42 611 q 243 997 219 961 q 276 1043 267 1033 q 310 1064 286 1053 q 350 1075 333 1075 q 441 1075 406 1075 q 500 1064 476 1075 q 533 1043 524 1053 q 565 997 542 1033 q 602 928 588 961 q 651 819 617 894 q 767 532 767 567 q 724 509 767 518 q 604 500 682 500 q 495 516 526 500 q 442 593 464 532 l 407 686 l 363 593 q 302 517 335 535 q 203 500 269 500 q 94 509 138 500 q 43 532 51 518 m 303 710 q 347 813 321 768 q 394 865 374 858 q 442 824 413 865 q 500 721 472 783 q 563 613 528 658 q 616 568 597 568 q 635 589 635 568 q 574 755 635 632 q 468 942 513 878 q 406 1007 424 1007 q 346 949 388 1007 q 235 752 304 890 q 165 588 165 614 q 208 568 165 568 q 256 610 228 568 q 303 710 283 651 z "},"_":{"ha":790,"x_min":42,"x_max":750,"o":"m 396 0 q 272 0 396 0 q 94 10 147 0 q 42 64 42 21 q 67 118 42 107 q 311 135 104 135 q 344 135 326 135 l 396 135 q 717 121 671 135 q 750 68 749 103 q 697 10 750 21 q 396 0 644 0 z "},"`":{"ha":421,"x_min":40,"x_max":379,"o":"m 115 915 q 40 1043 40 996 q 60 1085 40 1068 q 166 1108 88 1108 q 312 1041 244 1107 q 379 889 379 975 q 303 836 379 840 q 292 836 297 836 q 150 886 221 836 q 115 915 131 900 m 203 1006 q 189 996 189 1006 q 200 971 189 988 l 211 956 q 265 904 253 904 q 263 940 276 904 q 203 1006 238 1006 z "},"a":{"ha":896,"x_min":42,"x_max":854,"o":"m 169 453 q 124 469 169 469 q 74 526 74 469 l 74 528 q 139 650 74 586 l 161 669 q 340 735 221 717 q 464 744 404 744 q 806 611 742 744 q 830 514 822 578 q 843 306 838 450 l 854 0 l 513 0 q 219 12 292 0 q 104 65 146 24 q 42 215 42 128 q 113 374 42 303 q 169 453 169 432 m 401 129 q 325 149 342 131 q 308 221 308 167 q 321 306 308 275 q 353 337 333 336 q 374 342 374 338 q 358 353 374 347 q 317 358 343 358 q 239 339 290 358 q 162 285 188 319 q 136 215 136 250 q 156 147 136 179 q 217 99 176 115 q 325 69 288 69 q 414 92 363 69 q 468 119 465 114 q 457 125 469 124 l 401 129 m 178 543 q 185 540 178 538 q 299 561 204 540 q 483 594 450 594 q 534 590 515 594 q 576 557 553 585 q 599 505 599 529 q 583 458 599 481 q 467 392 550 408 q 438 382 438 386 q 512 372 438 375 q 599 354 586 369 q 606 331 606 347 q 597 276 606 314 q 570 206 588 238 q 542 171 553 175 q 532 161 532 167 q 591 109 532 147 q 706 67 650 71 q 747 293 747 67 q 731 512 747 457 q 698 589 715 567 q 636 632 681 611 q 476 654 592 653 l 458 654 q 303 641 356 654 q 215 590 251 628 q 178 543 179 551 m 485 285 q 463 279 475 285 q 411 244 411 260 q 431 233 411 233 q 466 240 450 232 q 494 267 482 247 q 485 285 507 286 z "},"b":{"ha":888,"x_min":42,"x_max":849,"o":"m 42 979 q 379 979 42 979 l 379 861 q 384 781 379 796 q 397 759 389 767 q 413 749 406 751 q 436 744 419 747 q 521 742 454 742 q 653 712 588 742 q 763 628 719 682 q 829 507 807 575 q 849 386 849 449 q 806 193 849 294 q 772 121 788 149 q 729 70 756 93 q 673 35 703 47 q 593 15 643 24 q 335 1 513 3 l 42 0 l 42 979 m 310 164 q 418 122 346 163 q 514 74 490 81 q 538 69 526 69 q 560 74 549 69 q 626 110 582 81 q 733 279 701 160 q 749 390 749 338 q 731 494 749 446 q 607 635 697 589 q 517 657 561 657 q 438 636 475 657 q 361 613 393 613 q 278 775 278 613 q 265 885 278 860 q 213 911 253 911 q 163 886 174 911 q 143 501 143 843 q 155 114 143 158 q 194 67 167 69 q 219 65 200 65 q 258 80 239 65 q 278 117 278 94 q 310 164 278 164 m 392 182 q 328 247 356 204 q 292 335 300 290 q 289 375 288 356 q 293 417 289 397 q 322 488 301 454 q 372 538 342 521 q 446 558 410 558 q 514 539 481 558 q 566 482 551 519 q 581 379 581 444 q 565 266 582 314 q 521 194 549 218 q 461 165 493 169 q 449 164 456 164 q 392 182 421 164 m 497 369 q 485 429 497 401 q 451 464 472 457 q 440 467 446 465 q 410 449 425 467 q 385 390 389 426 q 383 371 383 381 q 392 317 383 344 q 436 275 408 275 q 450 276 443 275 q 496 349 488 289 l 497 369 z "},"c":{"ha":890,"x_min":42,"x_max":850,"o":"m 213 74 q 64 261 106 135 q 42 407 42 325 q 68 551 42 483 q 150 672 96 622 q 449 772 260 772 q 744 704 639 772 q 850 521 850 636 q 813 483 850 500 q 728 458 776 465 q 661 453 696 454 q 626 454 644 453 q 542 477 575 458 q 475 497 510 496 q 474 497 475 497 q 417 476 439 497 q 382 428 393 456 q 375 397 376 414 q 381 364 375 382 q 417 308 392 329 q 458 283 443 286 q 465 282 463 282 q 525 317 490 282 q 667 363 569 363 q 706 360 685 363 q 811 335 786 353 q 843 264 836 318 q 844 238 844 251 q 769 103 844 151 q 489 36 685 46 q 424 35 454 35 q 213 74 279 35 m 717 260 q 682 265 700 264 q 647 261 665 265 q 597 231 610 253 q 489 199 579 201 q 472 199 481 199 q 356 224 394 199 q 290 356 301 258 q 289 390 289 374 q 324 519 289 464 q 410 586 351 561 q 507 607 460 607 q 522 607 514 607 q 599 567 576 603 q 664 535 619 533 q 672 535 668 535 q 731 574 731 538 q 651 649 731 611 q 517 689 588 679 q 453 694 483 694 q 239 615 329 694 q 143 407 143 529 q 146 367 143 388 q 296 142 164 218 q 454 99 365 103 q 458 99 456 99 q 532 111 483 99 q 624 142 583 125 q 690 174 664 158 q 749 230 749 208 q 717 260 749 251 z "},"d":{"ha":858,"x_min":42,"x_max":818,"o":"m 497 968 q 818 947 657 958 l 818 0 l 510 -7 q 389 -8 442 -8 q 235 -1 272 -8 q 165 29 186 8 q 59 173 76 111 q 42 338 42 235 q 49 488 42 440 q 73 570 56 536 q 135 652 90 604 q 221 714 179 700 q 300 724 250 724 q 354 722 325 724 l 497 710 l 497 968 m 579 144 q 599 107 599 133 q 618 66 599 81 q 670 51 638 51 q 714 76 703 51 q 733 474 733 119 l 733 897 l 649 897 q 590 887 606 897 q 571 857 575 876 q 565 775 564 819 l 564 707 q 543 604 564 614 q 532 603 539 603 q 393 636 499 603 q 350 650 368 644 q 339 653 344 651 q 290 638 321 653 q 213 581 251 618 q 122 353 122 490 q 208 133 122 221 q 331 56 279 61 q 342 54 336 54 q 449 100 388 54 q 554 150 514 150 q 579 144 568 150 m 314 228 q 264 357 264 299 q 317 485 264 419 q 392 553 367 547 q 404 554 397 554 q 474 533 429 554 q 547 475 531 507 q 565 373 564 443 q 549 255 565 303 q 506 182 533 207 q 447 150 479 157 q 431 149 439 149 q 379 164 406 149 q 314 228 344 183 m 479 389 q 456 437 471 417 q 426 457 442 457 q 375 404 393 457 q 365 351 365 376 q 374 306 365 328 q 424 256 390 261 q 433 256 428 256 q 479 285 461 256 q 489 328 490 301 q 479 389 489 354 z "},"e":{"ha":911,"x_min":42,"x_max":871,"o":"m 213 44 q 87 178 131 92 q 42 363 43 265 q 42 371 42 367 q 64 510 42 463 q 158 631 86 558 q 280 724 231 704 q 443 743 329 743 q 849 528 776 743 q 871 379 871 460 q 863 276 871 329 q 776 78 840 135 q 621 19 735 40 q 443 4 533 4 q 388 6 415 4 q 213 44 267 13 m 608 103 q 684 138 653 118 q 715 171 715 158 q 682 199 715 190 q 653 201 667 201 q 613 197 633 201 q 562 167 575 189 q 507 138 549 146 q 472 135 489 135 q 419 140 447 135 q 354 171 374 150 q 322 226 335 192 q 310 293 310 261 q 344 360 310 349 q 497 371 378 371 q 661 374 617 371 q 735 385 706 376 q 776 406 765 393 q 781 442 786 419 q 701 564 772 479 q 560 651 647 626 q 463 665 511 665 q 382 656 422 665 q 229 576 292 636 q 139 374 143 496 q 139 365 139 369 q 225 172 139 250 q 397 75 314 92 q 444 71 419 71 q 450 71 447 71 q 608 103 519 71 m 310 465 q 353 567 310 526 q 463 608 397 608 q 571 567 528 608 q 614 465 614 526 q 584 416 614 428 q 476 404 554 404 q 367 410 399 404 q 323 428 336 415 q 310 465 310 440 m 444 476 q 476 474 463 475 q 507 485 507 474 q 481 501 507 500 q 439 496 457 503 q 422 483 422 489 q 444 476 421 479 z "},"f":{"ha":665,"x_min":42,"x_max":625,"o":"m 143 246 q 132 434 143 379 q 92 500 121 489 q 42 639 42 519 q 53 730 42 701 q 89 758 65 758 q 128 777 113 758 q 143 821 143 796 q 224 953 143 910 q 406 990 292 990 q 451 989 428 990 q 520 985 503 986 q 558 981 538 985 q 585 976 578 976 q 603 965 592 975 q 616 950 614 954 q 622 926 618 946 q 624 896 625 907 q 619 853 622 885 q 613 802 617 822 q 606 755 610 782 q 602 724 603 728 q 600 714 601 721 q 593 665 599 701 q 567 572 588 628 q 528 501 547 517 q 493 416 508 486 q 474 249 478 346 l 464 31 l 143 10 l 143 246 m 294 82 q 325 82 294 82 q 367 115 356 82 q 379 290 379 147 q 384 481 379 433 q 402 550 389 529 q 444 579 415 571 q 494 606 474 588 q 514 644 514 625 q 494 677 514 664 q 446 690 474 690 q 381 738 381 690 q 381 739 381 738 q 431 810 381 776 q 465 826 446 819 q 528 869 515 846 q 531 885 532 876 q 511 911 531 900 q 421 928 483 928 q 283 864 358 928 q 211 744 211 801 q 211 742 211 743 q 201 706 211 721 q 176 690 190 690 q 153 676 163 690 q 143 640 143 661 q 153 604 143 619 q 177 589 163 589 q 201 517 192 589 q 210 298 210 446 q 222 116 211 150 q 294 82 233 82 z "},"g":{"ha":885,"x_min":42,"x_max":843,"o":"m 826 78 q 817 19 826 78 q 765 -99 808 -39 q 632 -190 722 -158 q 435 -221 542 -221 q 250 -201 329 -221 q 119 -122 171 -182 q 68 26 68 -61 q 124 113 68 113 q 161 122 161 113 q 121 178 161 131 q 42 440 42 265 q 75 635 42 546 q 165 753 108 724 q 532 785 221 782 l 843 786 l 843 414 q 826 78 843 194 m 675 -57 q 730 61 718 -12 q 742 375 742 135 q 732 669 742 615 q 675 722 722 722 q 627 707 647 722 q 607 671 607 692 q 575 624 607 624 q 456 672 540 624 q 344 719 371 719 q 246 667 317 719 q 135 436 135 585 q 219 229 135 314 q 342 158 288 158 q 379 169 347 158 q 471 196 411 181 q 543 211 531 211 q 571 164 571 211 q 543 -19 571 17 q 460 -51 525 -43 q 432 -53 450 -53 q 323 -22 354 -53 q 230 10 292 10 q 168 -21 168 10 q 247 -96 168 -68 q 429 -124 325 -124 q 675 -57 608 -124 m 390 251 q 376 251 390 251 q 342 268 363 251 q 303 336 322 285 q 283 445 283 388 q 313 549 283 503 q 444 614 354 614 q 568 439 568 614 q 567 403 568 415 q 542 284 560 307 q 447 254 524 261 q 390 251 417 251 m 468 379 q 478 392 468 379 q 489 436 489 406 q 476 483 489 467 q 442 500 463 500 q 401 479 421 500 q 374 392 374 450 q 406 353 374 353 q 468 379 447 353 m 488 76 q 490 83 490 82 q 474 93 490 93 q 439 89 458 93 q 372 57 372 72 q 420 44 372 44 q 488 76 468 44 z "},"h":{"ha":858,"x_min":42,"x_max":818,"o":"m 42 3 q 42 985 42 3 q 379 985 42 985 q 379 731 379 985 l 526 742 q 586 744 560 744 q 660 736 635 744 q 744 661 699 722 q 782 604 768 631 q 804 533 796 578 q 818 286 818 463 l 818 3 l 483 3 l 474 232 q 456 393 469 326 q 429 460 443 460 q 403 393 415 460 q 386 232 390 326 l 376 3 l 42 3 m 449 539 q 506 517 490 533 q 526 472 522 501 q 539 334 535 415 q 544 226 543 253 q 549 172 546 200 q 553 131 551 144 q 561 104 556 118 q 572 85 567 90 q 588 76 576 81 q 632 71 600 71 q 633 71 632 71 q 705 105 693 71 q 717 269 717 139 q 715 441 717 400 q 709 516 713 482 q 694 569 706 550 q 627 636 675 604 q 549 668 579 668 q 457 635 519 668 q 363 596 394 603 q 344 593 353 593 q 311 604 325 593 q 285 658 292 621 q 278 751 278 696 q 276 832 278 807 q 271 875 275 857 q 258 901 267 893 q 208 917 243 917 q 163 892 174 917 q 143 594 144 851 l 143 494 q 155 119 143 164 q 194 72 167 75 q 221 71 200 71 q 255 84 242 71 q 273 133 268 97 q 278 263 278 168 q 296 424 278 357 q 424 542 328 542 q 449 539 436 540 z "},"i":{"ha":415,"x_min":42,"x_max":375,"o":"m 51 69 q 43 229 44 88 q 42 333 42 279 q 44 551 42 435 l 54 989 l 375 1010 l 375 25 l 221 25 q 51 69 68 25 m 307 283 q 307 472 307 317 q 296 663 307 628 q 250 700 285 699 q 207 701 242 700 q 156 681 172 701 q 139 510 140 660 q 139 321 139 476 q 149 131 139 165 q 196 93 160 96 q 239 93 204 93 q 290 113 274 93 q 307 283 306 133 m 267 842 q 277 845 267 842 q 297 860 286 849 q 307 892 307 872 q 285 924 307 911 q 223 938 263 938 q 161 924 183 938 q 139 888 139 911 q 161 850 139 864 q 216 836 183 836 q 267 842 249 836 z "},"j":{"ha":549,"x_min":42,"x_max":508,"o":"m 465 -182 q 360 -237 442 -215 q 179 -260 278 -260 q 171 -260 175 -260 q 164 -260 167 -260 q 157 -260 161 -260 q 151 -260 154 -260 q 53 -228 79 -260 q 42 -189 42 -214 q 50 -122 42 -164 q 79 -38 58 -81 q 124 23 100 4 q 160 146 147 42 q 178 511 172 250 l 188 965 l 508 985 l 508 432 q 465 -182 508 -121 m 217 -164 q 395 -72 350 -164 q 440 308 440 21 q 430 635 440 594 q 356 676 419 676 q 283 634 293 676 q 272 353 272 592 q 260 50 272 114 q 204 -42 249 -14 q 136 -122 136 -85 q 217 -164 136 -164 m 440 863 q 356 914 440 914 q 294 900 317 914 q 272 863 272 886 q 294 826 272 839 q 356 813 317 813 q 417 826 394 813 q 440 863 440 839 z "},"k":{"ha":908,"x_min":42,"x_max":868,"o":"m 42 -19 q 42 963 42 -19 q 379 963 42 963 l 379 788 q 389 643 379 653 q 396 640 392 640 q 441 669 410 640 q 532 710 472 699 q 633 725 592 721 q 697 728 667 728 q 713 728 706 728 q 782 722 751 726 q 851 685 850 713 q 815 615 851 661 q 753 542 779 569 l 653 438 l 769 240 q 846 93 817 160 q 868 21 868 40 q 867 13 868 15 q 805 -10 858 0 q 678 -19 751 -19 q 572 -12 606 -19 q 519 14 538 -6 q 481 79 500 33 q 442 155 463 125 q 408 185 421 185 q 388 155 396 185 q 379 89 379 125 q 378 40 379 53 q 371 13 378 26 q 357 -6 364 -1 q 326 -14 350 -10 q 210 -19 300 -18 l 42 -19 m 426 319 q 475 280 444 319 q 535 173 506 240 q 596 77 565 106 q 674 49 626 49 q 734 58 721 49 q 744 74 747 67 q 638 281 733 99 l 543 463 q 729 658 636 560 l 647 658 q 563 630 608 658 q 476 551 518 601 q 351 457 399 457 q 278 690 276 457 q 273 826 278 786 q 255 880 268 865 q 208 894 242 894 q 163 869 174 894 q 143 484 143 826 q 155 97 143 142 q 194 50 167 53 q 221 49 200 49 q 260 65 242 49 q 278 108 278 81 q 331 243 278 167 q 426 319 385 319 z "},"l":{"ha":419,"x_min":42,"x_max":379,"o":"m 42 0 q 42 982 42 0 q 379 982 42 982 q 379 0 379 982 q 42 0 379 0 m 311 68 q 311 914 311 68 q 143 914 311 914 q 143 68 143 914 q 311 68 143 68 z "},"m":{"ha":1263,"x_min":42,"x_max":1224,"o":"m 42 740 l 569 738 q 775 738 707 736 q 806 738 793 738 q 808 738 807 738 q 957 728 871 738 q 1072 715 1046 718 q 1142 682 1099 711 q 1192 635 1186 653 q 1210 560 1197 618 q 1224 465 1222 504 l 1222 304 l 1222 0 l 885 0 l 885 238 q 857 467 885 442 q 836 444 846 476 q 811 246 817 389 l 800 17 q 483 -4 642 7 l 474 226 q 438 446 465 406 q 429 451 433 451 q 407 410 418 451 q 385 228 392 356 l 376 0 l 42 0 l 42 740 m 378 558 q 444 571 415 571 q 513 538 492 571 q 547 308 547 485 q 559 99 547 131 q 632 68 571 68 q 705 99 693 68 q 717 242 717 129 q 718 390 717 354 q 723 456 719 426 q 738 500 726 485 q 800 547 757 528 q 876 568 843 568 q 968 479 944 568 q 986 270 986 413 q 998 98 986 128 q 1071 68 1010 68 q 1126 76 1114 68 q 1142 94 1138 85 q 1150 126 1147 103 q 1154 249 1154 157 q 1075 607 1154 513 q 968 658 1032 658 q 842 621 913 658 q 742 586 775 586 q 740 586 742 586 q 629 629 707 588 q 523 672 551 671 q 433 632 494 672 q 315 582 354 582 q 278 626 279 582 q 258 662 278 647 q 210 676 239 676 q 153 630 163 676 q 143 359 143 583 q 158 96 143 135 q 214 68 174 68 l 215 68 q 265 96 254 68 q 278 257 278 125 q 302 465 279 389 q 378 558 325 542 z "},"n":{"ha":858,"x_min":42,"x_max":818,"o":"m 42 740 l 361 739 q 613 733 582 739 q 664 722 643 726 q 699 706 685 717 q 792 575 768 649 q 818 283 817 501 l 818 0 l 483 0 l 474 228 q 453 408 468 360 q 429 457 439 457 q 403 390 415 457 q 385 228 390 322 l 376 0 l 42 0 l 42 740 m 378 558 q 444 571 415 571 q 513 538 492 571 q 548 308 547 485 q 560 99 549 131 q 632 68 571 68 q 705 101 693 68 q 717 266 717 135 q 715 438 717 397 q 709 513 713 479 q 694 567 706 547 q 626 633 675 601 q 547 666 576 665 q 453 635 517 667 q 360 591 390 603 q 310 578 329 579 q 284 590 290 578 q 278 624 278 601 q 258 662 278 647 q 210 676 239 676 q 153 630 163 676 q 143 420 143 583 q 144 204 143 257 q 153 116 146 151 q 173 74 161 81 q 219 68 185 68 q 266 97 254 68 q 278 257 278 125 q 302 465 279 389 q 378 558 325 542 z "},"o":{"ha":904,"x_min":43,"x_max":864,"o":"m 322 8 q 300 13 322 8 q 242 40 278 17 q 160 109 207 63 q 94 178 113 156 q 62 222 76 200 q 44 269 47 243 q 43 308 43 288 q 49 397 43 346 q 461 744 88 744 q 631 726 578 744 q 757 644 685 708 q 847 535 829 579 q 863 392 864 493 q 863 371 863 382 q 842 206 861 253 q 754 97 824 160 q 631 17 685 35 q 472 0 576 0 q 322 8 367 0 m 669 153 q 768 288 743 201 q 779 367 779 326 q 763 463 779 414 q 611 622 722 578 q 435 658 521 658 q 279 615 349 658 q 175 506 210 571 q 143 371 143 444 q 143 358 143 365 q 194 208 146 278 q 406 83 271 99 q 446 81 426 81 q 669 153 560 81 m 422 174 q 347 200 378 181 q 303 283 315 219 q 296 354 296 318 q 301 417 296 385 q 340 521 311 486 q 454 574 379 568 q 468 574 461 574 q 569 536 533 574 q 611 372 611 494 q 572 210 611 249 q 508 176 549 186 q 457 171 483 171 q 422 174 440 171 m 504 444 q 451 467 476 467 q 431 463 440 467 q 378 382 382 444 q 378 372 378 376 q 418 276 378 317 q 456 254 440 254 q 460 254 458 254 q 511 304 476 257 q 544 369 544 350 q 504 444 544 413 z "},"p":{"ha":888,"x_min":42,"x_max":846,"o":"m 42 -229 l 42 750 l 335 749 q 544 742 471 749 q 672 714 617 736 q 752 657 726 692 q 812 541 778 622 q 846 364 846 460 q 753 110 846 213 q 510 8 660 8 q 397 -8 415 8 q 379 -111 379 -25 l 379 -229 l 42 -229 m 210 -161 q 265 -136 253 -161 q 278 -26 278 -111 q 295 96 278 58 q 351 133 313 133 q 447 109 390 133 q 538 85 504 85 q 631 122 572 85 q 717 228 688 160 q 747 378 747 297 q 716 531 747 460 q 625 641 685 601 q 538 681 565 681 q 428 633 511 681 q 310 586 346 586 q 278 633 278 586 q 258 670 278 656 q 206 685 238 685 q 163 660 174 685 q 143 275 143 618 q 154 -112 143 -68 q 194 -160 165 -157 q 210 -161 200 -161 m 346 244 q 281 374 281 310 q 333 512 281 438 q 445 586 385 586 q 543 528 506 586 q 581 375 581 471 q 517 213 581 247 q 439 181 460 181 q 401 194 418 181 q 346 244 383 207 m 483 313 q 490 329 483 313 q 497 382 497 344 q 479 446 497 419 q 434 472 461 472 q 392 431 407 472 q 382 374 382 407 q 399 311 382 340 q 442 282 417 282 q 483 313 468 282 z "},"q":{"ha":858,"x_min":42,"x_max":817,"o":"m 497 -215 q 497 43 497 -215 l 354 31 q 281 28 322 28 q 206 45 240 28 q 122 114 171 63 q 58 220 74 165 q 42 406 42 275 q 58 585 42 538 q 131 683 74 633 q 238 747 189 733 q 358 761 286 761 q 522 760 450 761 l 817 753 l 817 -194 q 497 -215 711 -201 m 665 701 q 618 687 638 701 q 599 651 599 672 q 567 604 599 604 q 436 653 535 604 q 332 688 368 688 q 263 669 296 688 q 160 562 196 635 q 124 403 124 489 q 213 172 124 261 q 273 119 251 133 q 328 104 294 104 q 435 128 361 104 q 514 153 510 151 q 529 154 522 154 q 557 125 550 154 q 564 0 564 96 q 577 -120 564 -96 q 649 -144 590 -144 l 733 -144 l 733 279 q 719 661 733 608 q 665 701 694 699 m 415 197 q 307 282 361 197 q 274 403 274 332 q 319 537 274 475 q 428 599 365 599 q 553 465 525 599 q 561 388 561 428 q 510 238 561 275 q 415 197 454 197 m 481 367 q 488 410 488 388 q 481 451 488 432 q 428 493 464 493 q 372 446 389 493 q 363 380 363 419 q 384 319 363 340 q 425 297 406 297 q 481 367 458 297 z "},"r":{"ha":657,"x_min":42,"x_max":617,"o":"m 42 0 q 42 742 42 0 l 328 740 q 557 729 525 739 q 596 715 589 719 q 610 697 603 710 q 617 673 617 683 q 614 640 617 663 q 593 550 611 617 q 497 474 572 474 q 424 449 449 474 q 389 365 399 425 q 379 183 379 304 l 379 0 l 42 0 m 278 178 q 319 433 278 325 q 415 542 360 542 q 469 557 443 542 q 503 593 494 572 q 513 639 514 621 q 497 667 513 660 q 485 669 490 669 q 425 638 461 669 q 349 585 381 597 q 317 578 331 578 q 297 582 306 578 q 278 620 278 593 q 258 662 278 647 q 210 676 239 676 q 153 630 163 676 q 143 372 143 583 q 153 115 143 161 q 207 68 164 68 q 264 90 250 68 q 278 178 278 113 z "},"s":{"ha":840,"x_min":42,"x_max":799,"o":"m 131 40 q 68 109 94 69 q 42 182 42 149 q 67 229 42 215 q 168 245 92 243 q 244 257 244 247 q 226 265 244 261 q 108 333 140 286 q 75 481 75 379 q 151 663 75 610 q 415 715 228 715 q 583 700 521 715 q 694 644 644 685 q 779 538 779 576 q 725 457 779 499 q 692 422 692 432 q 708 411 692 411 q 772 355 746 410 q 799 239 799 300 q 656 8 799 69 q 392 -31 565 -31 q 131 40 218 -31 m 472 556 l 515 554 q 629 579 629 554 q 514 631 629 604 q 450 638 482 638 q 271 603 361 638 q 164 526 181 569 q 151 472 151 497 q 228 375 151 415 q 490 293 304 335 q 558 259 535 283 q 582 203 582 235 q 551 144 582 172 q 437 110 513 110 q 330 141 361 110 q 228 172 299 172 q 157 149 157 172 q 161 138 157 144 q 253 73 186 96 q 401 50 319 50 q 651 125 568 50 q 713 229 713 179 q 450 393 713 336 q 326 433 358 413 q 294 494 294 454 q 314 545 294 533 q 389 557 333 557 q 472 556 444 557 z "},"t":{"ha":644,"x_min":42,"x_max":603,"o":"m 473 -33 q 422 -33 473 -33 q 297 -19 371 -33 q 200 17 222 -6 q 156 108 178 39 q 124 255 135 178 q 99 392 114 332 q 71 461 83 453 q 42 593 42 478 q 50 677 42 642 q 72 713 58 713 q 101 733 86 713 q 126 781 117 753 q 235 891 143 833 q 394 949 326 949 q 446 831 446 949 q 459 735 446 758 q 514 713 472 713 q 568 687 556 713 q 581 576 581 661 q 568 467 581 492 q 515 442 556 442 q 460 420 475 442 q 446 340 446 399 q 460 260 446 282 q 510 239 474 239 q 593 133 572 239 q 603 51 603 90 q 596 -3 603 11 q 473 -33 575 -33 m 504 90 q 506 102 506 93 q 489 125 506 111 q 447 146 472 139 q 392 194 404 157 q 379 356 379 232 q 390 511 379 479 q 438 543 401 543 q 494 558 474 543 q 514 594 514 572 q 494 630 514 615 q 440 644 474 644 q 393 665 407 644 q 379 740 379 686 q 375 811 379 793 q 356 829 371 829 q 301 810 342 829 q 235 762 260 792 q 210 706 210 732 q 195 663 210 681 q 160 644 181 644 q 124 629 139 644 q 108 593 108 614 q 124 558 108 572 q 160 543 139 543 q 199 501 189 543 q 210 342 210 460 q 265 86 210 142 q 398 43 308 43 q 504 90 488 43 z "},"u":{"ha":858,"x_min":42,"x_max":817,"o":"m 415 240 q 421 242 419 242 q 474 482 463 257 l 483 707 l 817 707 l 817 -33 l 494 -32 q 218 -20 289 -32 q 107 33 147 -8 q 54 142 67 74 q 42 403 42 211 l 42 707 l 379 707 l 379 468 q 415 240 379 240 m 199 93 q 290 35 250 35 q 412 82 331 35 q 537 129 493 129 q 581 82 581 129 q 601 45 581 60 q 649 31 621 31 q 706 77 696 31 q 717 342 717 124 q 706 601 717 561 q 632 640 694 640 q 572 629 589 640 q 553 589 556 617 q 547 400 547 533 q 517 197 547 261 q 407 132 486 132 q 278 451 278 132 q 266 608 278 575 q 210 640 254 640 q 167 628 176 640 q 153 601 157 615 q 147 557 150 588 q 143 387 143 511 q 156 194 143 263 q 199 93 168 126 z "},"v":{"ha":926,"x_min":42,"x_max":885,"o":"m 281 76 q 253 145 276 88 q 201 277 231 203 q 107 515 172 351 q 42 711 42 679 q 91 735 42 725 q 210 744 140 744 l 376 744 l 465 439 l 547 744 l 717 744 q 835 737 786 744 q 885 719 885 729 q 746 347 885 693 l 607 0 l 458 0 q 333 15 367 0 q 281 76 299 29 m 453 68 q 478 68 453 68 q 540 126 503 68 q 666 401 578 185 q 754 643 754 618 q 743 672 754 668 q 703 676 732 676 q 629 640 654 676 q 569 474 604 603 q 463 271 514 271 q 357 474 413 271 q 297 640 321 604 q 222 676 272 676 l 144 676 l 207 517 q 371 125 339 182 q 453 68 403 68 z "},"w":{"ha":1319,"x_min":42,"x_max":1278,"o":"m 425 0 q 291 19 318 0 q 207 194 264 39 q 96 500 150 350 q 42 685 42 650 q 60 730 42 719 q 108 740 79 740 q 190 738 138 740 q 263 733 243 735 q 308 724 283 732 q 340 710 332 717 q 359 683 347 704 q 376 642 371 661 q 390 581 381 624 l 426 432 l 468 589 q 485 655 481 636 q 503 697 490 674 q 523 726 517 721 q 553 738 529 731 q 596 744 578 744 l 660 744 q 797 726 771 744 q 853 601 822 707 l 896 458 l 933 593 q 969 688 953 664 q 1015 722 985 713 q 1116 736 1046 732 q 1214 740 1186 740 q 1260 729 1242 740 q 1278 686 1278 718 q 1171 335 1278 628 l 1057 17 l 903 7 l 749 -4 l 669 288 l 619 144 q 558 19 582 36 q 501 1 536 3 q 425 0 467 0 m 556 256 q 668 436 614 436 q 775 244 725 436 q 828 102 804 136 q 903 68 851 68 q 991 143 954 68 q 1103 428 1028 218 q 1178 644 1178 639 q 1131 676 1178 676 q 1060 638 1083 676 q 1008 482 1038 600 q 906 278 958 278 q 796 472 854 278 q 733 638 758 599 q 661 676 707 676 q 590 638 615 676 q 532 494 564 600 q 469 330 500 389 q 421 271 439 271 q 378 313 403 271 q 322 479 354 356 q 285 622 290 603 q 256 659 279 642 q 206 676 232 676 q 165 646 165 676 q 240 393 165 606 q 347 124 314 181 q 424 68 379 68 q 494 105 468 68 q 556 256 519 142 z "},"x":{"ha":926,"x_min":42,"x_max":885,"o":"m 204 22 q 157 22 204 22 q 76 33 110 22 q 42 70 42 44 q 67 149 42 96 q 151 290 92 201 q 211 403 211 378 q 128 552 211 429 q 46 710 46 675 q 86 756 46 746 q 234 767 126 767 q 378 753 342 767 q 431 696 415 740 l 453 625 l 503 696 q 575 752 531 738 q 705 767 619 767 q 838 756 790 767 q 885 731 885 746 q 788 551 885 693 l 690 410 l 786 275 q 885 93 885 136 q 845 36 885 50 q 713 22 806 22 q 576 37 621 22 q 501 93 532 51 l 451 165 l 407 93 q 340 36 381 50 q 204 22 299 22 m 196 89 q 215 89 196 89 q 274 119 233 89 q 345 191 315 149 q 410 263 375 233 q 465 293 446 293 q 514 263 485 293 q 564 192 543 233 q 701 89 617 89 l 786 89 l 700 215 q 619 406 619 335 q 685 585 619 478 l 756 699 l 686 699 q 621 674 658 699 q 560 614 583 649 q 510 554 538 579 q 464 529 482 529 q 417 554 446 529 q 365 614 389 579 q 225 699 310 699 l 140 699 l 225 586 q 308 413 308 478 q 250 264 308 347 q 158 107 158 129 q 196 89 158 89 z "},"y":{"ha":954,"x_min":42,"x_max":913,"o":"m 553 -166 q 538 -182 553 -166 q 442 -215 522 -197 q 269 -233 363 -233 q 143 -212 176 -233 q 76 -68 76 -171 q 94 18 76 0 q 190 36 111 36 q 294 56 269 36 q 297 61 297 58 q 169 426 297 117 q 42 772 42 735 q 164 801 42 801 q 331 790 285 801 q 384 773 376 779 q 406 747 392 767 q 425 708 419 728 q 490 544 467 561 q 547 692 514 544 q 558 739 554 724 q 572 770 561 754 q 592 792 582 786 q 625 800 600 794 q 733 806 650 806 q 751 806 742 806 q 765 806 758 806 q 778 806 771 806 l 863 797 q 913 772 913 786 q 748 292 913 719 q 553 -166 583 -135 m 446 -112 q 536 18 489 -85 q 683 398 583 121 q 783 703 783 675 q 758 732 783 732 q 663 685 694 732 q 600 526 632 639 q 488 324 542 324 q 374 525 435 324 q 308 698 335 658 q 229 738 281 738 l 147 738 l 269 447 q 386 78 386 168 q 363 3 386 31 q 291 -43 339 -25 q 213 -81 243 -61 q 182 -112 182 -101 q 297 -137 182 -137 q 446 -112 411 -137 z "},"z":{"ha":828,"x_min":42,"x_max":786,"o":"m 67 11 q 42 78 42 36 q 183 344 42 190 l 324 496 l 201 496 q 95 513 113 496 q 78 615 78 529 l 78 735 l 424 725 q 719 706 665 718 q 779 646 774 694 l 779 638 q 650 400 779 567 l 511 225 l 649 225 q 768 209 750 225 q 786 107 786 193 l 786 -12 l 438 -12 q 185 -6 294 -12 q 67 11 76 1 m 719 107 q 683 146 719 135 q 555 157 646 157 q 426 168 464 157 q 388 208 388 179 q 533 421 388 258 q 642 552 597 492 q 686 628 686 613 q 432 665 686 665 q 231 655 282 665 q 179 614 179 644 q 210 576 179 588 q 314 564 240 564 q 443 518 443 564 q 297 326 443 469 q 190 203 235 265 q 146 118 146 142 q 154 83 146 94 q 196 67 163 75 q 424 56 240 56 q 663 65 607 56 q 719 107 719 75 z "},"{":{"ha":624,"x_min":42,"x_max":582,"o":"m 313 -187 q 178 83 178 -140 q 163 206 178 164 q 110 271 147 247 q 42 439 42 313 q 58 544 42 507 q 111 602 74 582 q 163 661 149 622 q 178 783 178 700 q 238 983 178 924 q 442 1042 299 1042 l 582 1042 l 582 910 q 535 760 582 778 q 478 651 506 749 q 446 449 450 553 l 446 429 q 476 210 446 326 q 536 93 507 93 q 582 -58 582 93 q 571 -185 582 -162 q 503 -208 560 -208 l 472 -208 q 313 -187 365 -206 m 315 -78 q 437 -108 360 -108 q 514 -76 514 -108 q 447 26 514 -43 q 399 103 419 54 q 379 195 379 153 q 367 288 379 238 q 334 372 356 338 q 313 432 313 406 q 338 499 313 458 q 379 651 379 565 q 403 788 379 738 q 468 838 426 838 q 501 858 488 838 q 514 906 514 878 q 447 974 514 974 q 304 895 364 974 q 244 707 244 817 q 231 601 244 650 q 194 533 217 551 q 144 431 144 492 q 190 354 144 371 q 251 144 236 336 q 276 -2 258 60 q 315 -78 294 -64 z "},"|":{"ha":319,"x_min":54,"x_max":290,"o":"m 54 -162 q 54 1056 54 -162 q 290 1056 54 1056 q 290 -162 290 1056 q 54 -162 290 -162 m 122 447 q 122 176 122 447 q 156 -94 122 -94 q 189 447 189 -94 q 156 988 189 988 q 122 447 122 988 z "},"}":{"ha":626,"x_min":42,"x_max":585,"o":"m 483 113 q 483 38 483 113 q 408 -124 483 -37 q 211 -211 332 -211 q 66 -187 90 -211 q 42 -101 42 -162 q 62 19 42 -39 q 120 102 82 76 q 172 180 158 128 q 186 385 185 232 l 186 422 q 165 690 186 608 q 93 771 143 771 q 46 906 46 771 l 46 1042 l 190 1042 q 400 989 342 1042 q 475 785 458 936 q 501 659 482 717 q 539 590 519 601 q 585 439 585 563 q 572 338 585 382 q 535 285 558 293 q 483 113 483 264 m 342 -69 q 370 7 358 -53 q 382 147 382 67 q 396 271 382 228 q 444 335 410 314 q 498 381 478 356 q 518 424 518 406 q 498 474 518 442 q 450 533 478 506 q 382 724 382 601 q 354 890 382 846 q 239 957 326 935 q 183 967 204 967 q 153 955 161 967 q 146 914 146 943 q 161 859 146 885 q 197 826 176 833 q 247 689 247 807 q 264 590 247 640 q 312 506 281 539 q 343 453 343 474 q 312 379 343 433 q 264 263 281 325 q 247 151 247 201 q 197 14 247 33 q 161 -15 176 6 q 146 -59 146 -36 q 171 -96 146 -82 q 232 -110 196 -110 q 342 -69 301 -110 z "},"~":{"ha":858,"x_min":42,"x_max":817,"o":"m 751 710 q 817 599 817 710 q 752 431 817 489 q 585 372 688 372 q 392 410 483 372 q 265 449 300 449 q 165 413 229 449 q 77 378 100 378 q 48 406 54 378 q 42 510 42 433 q 101 694 42 650 q 274 739 160 739 q 482 690 389 739 q 582 657 547 657 q 665 683 617 657 q 751 710 714 710 m 168 528 l 257 535 q 433 493 357 535 q 458 480 444 488 q 479 468 472 472 q 496 459 486 464 q 511 452 506 454 q 522 447 517 450 q 545 443 533 443 q 635 473 557 443 q 713 533 713 503 q 682 562 713 551 q 599 572 651 572 q 482 588 547 572 q 361 633 417 604 q 276 661 306 661 q 180 617 247 661 q 113 549 113 574 q 168 528 113 528 z "},"":{"ha":1126,"x_min":42,"x_max":1085,"o":"m 383 1147 q 308 1275 308 1228 q 328 1317 308 1300 q 434 1340 356 1340 q 580 1273 513 1339 q 647 1121 647 1207 q 571 1068 647 1072 q 560 1068 565 1068 q 418 1118 489 1068 q 383 1147 399 1132 m 471 1238 q 457 1228 457 1238 q 468 1203 457 1219 l 479 1188 q 533 1136 521 1136 q 531 1172 544 1136 q 471 1238 506 1238 m 207 525 l 372 965 l 758 965 l 921 525 q 1085 42 1083 85 q 904 0 1085 0 q 751 13 789 0 q 699 68 713 25 q 617 132 682 122 q 542 135 593 135 q 461 121 490 135 q 422 66 432 107 q 374 13 411 25 q 222 0 338 0 q 42 42 42 0 q 207 525 42 85 m 335 135 q 362 179 343 165 q 422 198 381 193 q 554 203 464 203 q 686 198 644 203 q 747 179 728 193 q 772 141 765 165 q 787 104 778 117 q 810 83 796 92 q 888 68 836 68 l 985 68 l 864 397 q 716 803 743 728 q 660 896 689 878 q 564 914 632 914 q 467 896 496 914 q 413 803 439 878 q 264 397 386 729 l 143 68 l 231 68 q 335 135 317 67 m 432 368 q 426 394 426 376 q 442 476 426 424 q 503 636 465 561 q 565 711 542 711 q 608 674 585 711 q 649 576 632 636 q 674 475 665 515 q 682 403 682 432 q 668 363 682 375 q 579 339 640 339 q 478 347 518 339 q 432 368 439 356 m 550 407 q 581 493 581 407 q 568 542 581 540 q 549 507 561 542 q 532 438 532 463 q 550 407 532 411 z "},"":{"ha":1126,"x_min":42,"x_max":1085,"o":"m 204 1100 q 203 1108 203 1101 q 364 1496 203 1179 q 404 1565 381 1529 q 438 1611 428 1601 q 471 1632 447 1621 q 511 1643 494 1643 q 602 1643 567 1643 q 661 1632 638 1643 q 694 1611 685 1621 q 726 1565 703 1601 q 763 1496 749 1529 q 813 1388 778 1463 q 928 1100 928 1135 q 885 1077 928 1086 q 765 1068 843 1068 q 656 1084 688 1068 q 603 1161 625 1100 l 568 1254 l 524 1161 q 463 1085 496 1103 q 365 1068 431 1068 q 256 1077 299 1068 q 204 1100 213 1086 m 464 1278 q 508 1381 482 1336 q 556 1433 535 1426 q 603 1392 574 1433 q 661 1289 633 1351 q 724 1181 689 1226 q 777 1136 758 1136 q 796 1157 796 1136 q 735 1323 796 1200 q 629 1510 674 1446 q 567 1575 585 1575 q 507 1517 549 1575 q 396 1320 465 1458 q 326 1156 326 1182 q 369 1136 326 1136 q 417 1178 389 1136 q 464 1278 444 1219 m 207 525 l 372 965 l 758 965 l 921 525 q 1085 42 1083 85 q 904 0 1085 0 q 751 13 789 0 q 699 68 713 25 q 617 132 682 122 q 542 135 593 135 q 461 121 490 135 q 422 66 432 107 q 374 13 411 25 q 222 0 338 0 q 42 42 42 0 q 207 525 42 85 m 335 135 q 362 179 343 165 q 422 198 381 193 q 554 203 464 203 q 686 198 644 203 q 747 179 728 193 q 772 141 765 165 q 787 104 778 117 q 810 83 796 92 q 888 68 836 68 l 985 68 l 864 397 q 716 803 743 728 q 660 896 689 878 q 564 914 632 914 q 467 896 496 914 q 413 803 439 878 q 264 397 386 729 l 143 68 l 231 68 q 335 135 317 67 m 432 368 q 426 394 426 376 q 442 476 426 424 q 503 636 465 561 q 565 711 542 711 q 608 674 585 711 q 649 576 632 636 q 674 475 665 515 q 682 403 682 432 q 668 363 682 375 q 579 339 640 339 q 478 347 518 339 q 432 368 439 356 m 550 407 q 581 493 581 407 q 568 542 581 540 q 549 507 561 542 q 532 438 532 463 q 550 407 532 411 z "},"":{"ha":1126,"x_min":42,"x_max":1085,"o":"m 888 1406 q 953 1295 953 1406 q 888 1126 953 1185 q 722 1068 824 1068 q 528 1106 619 1068 q 401 1144 436 1144 q 301 1109 365 1144 q 213 1074 236 1074 q 184 1101 190 1074 q 178 1206 178 1129 q 237 1390 178 1346 q 410 1435 296 1435 q 618 1386 525 1435 q 718 1353 683 1353 q 801 1379 753 1353 q 888 1406 850 1406 m 304 1224 l 393 1231 q 569 1189 493 1231 q 594 1176 581 1183 q 615 1164 608 1168 q 632 1155 622 1160 q 647 1148 642 1150 q 658 1143 653 1146 q 681 1139 669 1139 q 771 1169 693 1139 q 849 1229 849 1199 q 818 1258 849 1247 q 735 1268 788 1268 q 618 1284 683 1268 q 497 1328 553 1300 q 413 1357 442 1357 q 316 1313 383 1357 q 249 1244 249 1269 q 304 1224 249 1224 m 207 525 l 372 965 l 758 965 l 921 525 q 1085 42 1083 85 q 904 0 1085 0 q 751 13 789 0 q 699 68 713 25 q 617 132 682 122 q 542 135 593 135 q 461 121 490 135 q 422 66 432 107 q 374 13 411 25 q 222 0 338 0 q 42 42 42 0 q 207 525 42 85 m 335 135 q 362 179 343 165 q 422 198 381 193 q 554 203 464 203 q 686 198 644 203 q 747 179 728 193 q 772 141 765 165 q 787 104 778 117 q 810 83 796 92 q 888 68 836 68 l 985 68 l 864 397 q 716 803 743 728 q 660 896 689 878 q 564 914 632 914 q 467 896 496 914 q 413 803 439 878 q 264 397 386 729 l 143 68 l 231 68 q 335 135 317 67 m 432 368 q 426 394 426 376 q 442 476 426 424 q 503 636 465 561 q 565 711 542 711 q 608 674 585 711 q 649 576 632 636 q 674 475 665 515 q 682 403 682 432 q 668 363 682 375 q 579 339 640 339 q 478 347 518 339 q 432 368 439 356 m 550 407 q 581 493 581 407 q 568 542 581 540 q 549 507 561 542 q 532 438 532 463 q 550 407 532 411 z "},"":{"ha":921,"x_min":42,"x_max":963,"o":"m 699 1147 q 624 1275 624 1228 q 643 1317 624 1300 q 749 1340 671 1340 q 895 1273 828 1339 q 963 1121 963 1207 q 886 1068 963 1072 q 875 1068 881 1068 q 733 1118 804 1068 q 699 1147 714 1132 m 786 1238 q 772 1228 772 1238 q 783 1203 772 1219 l 794 1188 q 848 1136 836 1136 q 846 1172 860 1136 q 786 1238 821 1238 m 119 14 q 89 21 119 14 q 51 45 58 28 q 43 204 44 63 q 42 310 42 254 q 44 526 42 410 l 54 965 q 881 983 467 975 l 881 711 l 644 711 q 476 701 543 711 q 408 676 408 692 q 517 647 408 657 q 629 643 568 643 l 850 643 q 829 389 839 517 l 618 379 q 454 360 500 374 q 408 319 408 347 q 457 281 408 292 q 644 271 506 271 l 881 271 l 881 0 l 474 0 q 119 14 181 0 m 813 135 q 806 173 813 164 q 791 186 799 182 q 775 192 783 190 q 752 197 767 194 q 722 200 738 199 q 683 201 707 201 q 576 203 647 203 l 340 203 l 340 474 l 543 474 q 726 493 693 474 q 744 525 744 504 q 702 565 744 554 q 540 575 660 575 l 336 575 l 347 685 q 351 732 350 718 q 363 763 351 746 q 381 783 374 779 q 421 794 389 788 q 478 801 453 800 q 595 807 504 803 q 733 824 686 811 q 779 866 779 838 q 715 904 779 894 q 458 914 651 914 l 139 914 l 139 68 l 475 68 q 762 78 711 68 q 813 135 813 88 z "},"":{"ha":921,"x_min":42,"x_max":1243,"o":"m 519 1100 q 518 1108 518 1101 q 679 1496 518 1179 q 719 1565 696 1529 q 753 1611 743 1601 q 786 1632 763 1621 q 826 1643 810 1643 q 917 1643 882 1643 q 976 1632 953 1643 q 1009 1611 1000 1621 q 1041 1565 1018 1601 q 1078 1496 1064 1529 q 1128 1388 1093 1463 q 1243 1100 1243 1135 q 1201 1077 1243 1086 q 1081 1068 1158 1068 q 972 1084 1003 1068 q 918 1161 940 1100 l 883 1254 l 839 1161 q 778 1085 811 1103 q 680 1068 746 1068 q 571 1077 614 1068 q 519 1100 528 1086 m 779 1278 q 824 1381 797 1336 q 871 1433 850 1426 q 919 1392 889 1433 q 976 1289 949 1351 q 1039 1181 1004 1226 q 1092 1136 1074 1136 q 1111 1157 1111 1136 q 1050 1323 1111 1200 q 944 1510 989 1446 q 882 1575 900 1575 q 822 1517 864 1575 q 711 1320 781 1458 q 642 1156 642 1182 q 685 1136 642 1136 q 732 1178 704 1136 q 779 1278 760 1219 m 119 14 q 89 21 119 14 q 51 45 58 28 q 43 204 44 63 q 42 310 42 254 q 44 526 42 410 l 54 965 q 881 983 467 975 l 881 711 l 644 711 q 476 701 543 711 q 408 676 408 692 q 517 647 408 657 q 629 643 568 643 l 850 643 q 829 389 839 517 l 618 379 q 454 360 500 374 q 408 319 408 347 q 457 281 408 292 q 644 271 506 271 l 881 271 l 881 0 l 474 0 q 119 14 181 0 m 813 135 q 806 173 813 164 q 791 186 799 182 q 775 192 783 190 q 752 197 767 194 q 722 200 738 199 q 683 201 707 201 q 576 203 647 203 l 340 203 l 340 474 l 543 474 q 726 493 693 474 q 744 525 744 504 q 702 565 744 554 q 540 575 660 575 l 336 575 l 347 685 q 351 732 350 718 q 363 763 351 746 q 381 783 374 779 q 421 794 389 788 q 478 801 453 800 q 595 807 504 803 q 733 824 686 811 q 779 866 779 838 q 715 904 779 894 q 458 914 651 914 l 139 914 l 139 68 l 475 68 q 762 78 711 68 q 813 135 813 88 z "},"":{"ha":436,"x_min":-215,"x_max":396,"o":"m -140 1151 q -215 1279 -215 1232 q -196 1321 -215 1304 q -90 1344 -168 1344 q 56 1277 -11 1343 q 124 1125 124 1211 q 47 1072 124 1076 q 36 1072 42 1072 q -106 1122 -35 1072 q -140 1151 -125 1136 m -53 1242 q -67 1232 -67 1242 q -56 1207 -67 1224 l -44 1192 q 9 1140 -3 1140 q 7 1176 21 1140 q -53 1242 -18 1242 m 42 0 q 42 989 42 0 q 396 968 218 979 q 396 21 396 968 q 42 0 218 10 m 311 71 q 311 917 311 71 q 110 917 311 917 q 110 71 110 917 q 311 71 110 71 z "},"":{"ha":436,"x_min":-321,"x_max":404,"o":"m -319 1104 q -321 1113 -321 1106 q -160 1500 -321 1183 q -119 1569 -143 1533 q -86 1615 -96 1606 q -53 1636 -76 1625 q -12 1647 -29 1647 q 78 1647 43 1647 q 138 1636 114 1647 q 170 1615 161 1625 q 202 1569 179 1606 q 240 1500 225 1533 q 289 1392 254 1467 q 404 1104 404 1139 q 362 1081 404 1090 q 242 1072 319 1072 q 133 1088 164 1072 q 79 1165 101 1104 l 44 1258 l 0 1165 q -60 1090 -28 1107 q -159 1072 -93 1072 q -268 1081 -225 1072 q -319 1104 -311 1090 m -60 1282 q -15 1385 -42 1340 q 32 1438 11 1431 q 80 1397 50 1438 q 138 1293 110 1356 q 200 1185 165 1231 q 253 1140 235 1140 q 272 1161 272 1140 q 211 1327 272 1204 q 106 1515 150 1450 q 43 1579 61 1579 q -17 1521 25 1579 q -128 1324 -58 1463 q -197 1160 -197 1186 q -154 1140 -197 1140 q -107 1182 -135 1140 q -60 1282 -79 1224 m 42 0 q 42 989 42 0 q 396 968 218 979 q 396 21 396 968 q 42 0 218 10 m 311 71 q 311 917 311 71 q 110 917 311 917 q 110 71 110 917 q 311 71 110 71 z "},"":{"ha":993,"x_min":42,"x_max":953,"o":"m 819 1406 q 885 1295 885 1406 q 820 1126 885 1185 q 653 1068 756 1068 q 460 1106 551 1068 q 333 1144 368 1144 q 233 1109 297 1144 q 145 1074 168 1074 q 116 1101 122 1074 q 110 1206 110 1129 q 169 1390 110 1346 q 342 1435 228 1435 q 550 1386 457 1435 q 650 1353 615 1353 q 733 1379 685 1353 q 819 1406 782 1406 m 236 1224 l 325 1231 q 501 1189 425 1231 q 526 1176 513 1183 q 547 1164 540 1168 q 564 1155 554 1160 q 579 1148 574 1150 q 590 1143 585 1146 q 613 1139 601 1139 q 703 1169 625 1139 q 781 1229 781 1199 q 750 1258 781 1247 q 667 1268 719 1268 q 550 1284 615 1268 q 429 1328 485 1300 q 344 1357 374 1357 q 248 1313 315 1357 q 181 1244 181 1269 q 236 1224 181 1224 m 42 0 l 42 982 l 207 982 q 276 981 256 982 q 326 973 297 981 q 365 958 354 965 q 399 926 376 951 q 438 878 422 901 q 485 804 453 856 l 599 626 l 618 982 l 953 982 l 953 0 l 788 0 q 717 0 739 0 q 667 8 696 0 q 628 22 639 15 q 594 55 618 29 q 556 103 571 81 q 508 178 542 126 l 396 354 l 375 0 l 42 0 m 193 68 q 266 100 254 68 q 278 259 278 132 q 283 438 278 386 q 302 517 289 490 q 335 544 315 544 q 386 517 356 544 q 528 334 443 467 q 652 153 614 201 q 721 87 690 106 q 792 68 751 68 l 885 68 l 885 914 l 800 914 q 728 882 739 914 q 717 723 717 850 q 710 544 717 596 q 691 465 704 492 q 658 438 678 438 q 607 464 638 438 q 451 669 550 514 q 306 869 351 825 q 201 914 260 913 l 110 914 l 110 68 l 193 68 z "},"":{"ha":1067,"x_min":42,"x_max":1025,"o":"m 358 1147 q 283 1275 283 1228 q 303 1317 283 1300 q 409 1340 331 1340 q 555 1273 488 1339 q 622 1121 622 1207 q 546 1068 622 1072 q 535 1068 540 1068 q 393 1118 464 1068 q 358 1147 374 1132 m 446 1238 q 432 1228 432 1238 q 443 1203 432 1219 l 454 1188 q 508 1136 496 1136 q 506 1172 519 1136 q 446 1238 481 1238 m 96 215 q 42 497 42 319 q 93 771 42 669 q 199 888 128 839 q 356 960 271 938 q 536 985 440 983 q 544 985 540 985 q 717 964 636 985 q 872 894 801 942 q 978 779 943 847 q 1025 499 1025 688 q 976 206 1025 301 q 911 121 956 165 q 826 56 867 76 q 538 7 733 7 q 533 7 535 7 q 243 57 335 7 q 163 124 206 78 q 96 215 119 171 m 842 210 q 925 324 907 275 q 943 488 943 374 q 927 656 943 603 q 863 763 911 710 q 657 888 775 856 q 538 906 597 904 q 421 889 479 906 q 215 764 303 856 q 149 658 165 711 q 133 492 133 604 q 151 328 133 379 q 242 200 169 276 q 389 100 314 124 q 500 86 433 86 q 601 93 546 86 q 842 210 740 108 m 531 210 q 373 271 426 211 q 319 504 319 331 q 334 653 319 610 q 387 724 349 697 q 467 767 425 751 q 538 782 510 782 q 609 767 567 782 q 682 731 651 751 q 751 600 731 697 q 764 488 764 544 q 757 404 764 446 q 696 264 742 306 q 538 210 636 210 q 531 210 533 210 m 665 588 q 539 664 629 665 q 453 645 481 664 q 407 572 425 626 q 392 488 392 528 q 431 369 392 424 q 546 303 478 304 q 551 304 549 303 q 663 408 624 307 q 683 508 683 461 q 665 588 682 550 z "},"":{"ha":1067,"x_min":42,"x_max":1025,"o":"m 179 1100 q 178 1108 178 1101 q 339 1496 178 1179 q 379 1565 356 1529 q 413 1611 403 1601 q 446 1632 422 1621 q 486 1643 469 1643 q 577 1643 542 1643 q 636 1632 613 1643 q 669 1611 660 1621 q 701 1565 678 1601 q 738 1496 724 1529 q 788 1388 753 1463 q 903 1100 903 1135 q 860 1077 903 1086 q 740 1068 818 1068 q 631 1084 663 1068 q 578 1161 600 1100 l 543 1254 l 499 1161 q 438 1085 471 1103 q 340 1068 406 1068 q 231 1077 274 1068 q 179 1100 188 1086 m 439 1278 q 483 1381 457 1336 q 531 1433 510 1426 q 578 1392 549 1433 q 636 1289 608 1351 q 699 1181 664 1226 q 752 1136 733 1136 q 771 1157 771 1136 q 710 1323 771 1200 q 604 1510 649 1446 q 542 1575 560 1575 q 482 1517 524 1575 q 371 1320 440 1458 q 301 1156 301 1182 q 344 1136 301 1136 q 392 1178 364 1136 q 439 1278 419 1219 m 96 215 q 42 497 42 319 q 93 771 42 669 q 199 888 128 839 q 356 960 271 938 q 536 985 440 983 q 544 985 540 985 q 717 964 636 985 q 872 894 801 942 q 978 779 943 847 q 1025 499 1025 688 q 976 206 1025 301 q 911 121 956 165 q 826 56 867 76 q 538 7 733 7 q 533 7 535 7 q 243 57 335 7 q 163 124 206 78 q 96 215 119 171 m 842 210 q 925 324 907 275 q 943 488 943 374 q 927 656 943 603 q 863 763 911 710 q 657 888 775 856 q 538 906 597 904 q 421 889 479 906 q 215 764 303 856 q 149 658 165 711 q 133 492 133 604 q 151 328 133 379 q 242 200 169 276 q 389 100 314 124 q 500 86 433 86 q 601 93 546 86 q 842 210 740 108 m 531 210 q 373 271 426 211 q 319 504 319 331 q 334 653 319 610 q 387 724 349 697 q 467 767 425 751 q 538 782 510 782 q 609 767 567 782 q 682 731 651 751 q 751 600 731 697 q 764 488 764 544 q 757 404 764 446 q 696 264 742 306 q 538 210 636 210 q 531 210 533 210 m 665 588 q 539 664 629 665 q 453 645 481 664 q 407 572 425 626 q 392 488 392 528 q 431 369 392 424 q 546 303 478 304 q 551 304 549 303 q 663 408 624 307 q 683 508 683 461 q 665 588 682 550 z "},"":{"ha":1067,"x_min":42,"x_max":1025,"o":"m 863 1406 q 928 1295 928 1406 q 863 1126 928 1185 q 697 1068 799 1068 q 503 1106 594 1068 q 376 1144 411 1144 q 276 1109 340 1144 q 188 1074 211 1074 q 159 1101 165 1074 q 153 1206 153 1129 q 212 1390 153 1346 q 385 1435 271 1435 q 593 1386 500 1435 q 693 1353 658 1353 q 776 1379 728 1353 q 863 1406 825 1406 m 279 1224 l 368 1231 q 544 1189 468 1231 q 569 1176 556 1183 q 590 1164 583 1168 q 607 1155 597 1160 q 622 1148 617 1150 q 633 1143 628 1146 q 656 1139 644 1139 q 746 1169 668 1139 q 824 1229 824 1199 q 793 1258 824 1247 q 710 1268 763 1268 q 593 1284 658 1268 q 472 1328 528 1300 q 388 1357 417 1357 q 291 1313 358 1357 q 224 1244 224 1269 q 279 1224 224 1224 m 96 215 q 42 497 42 319 q 93 771 42 669 q 199 888 128 839 q 356 960 271 938 q 536 985 440 983 q 544 985 540 985 q 717 964 636 985 q 872 894 801 942 q 978 779 943 847 q 1025 499 1025 688 q 976 206 1025 301 q 911 121 956 165 q 826 56 867 76 q 538 7 733 7 q 533 7 535 7 q 243 57 335 7 q 163 124 206 78 q 96 215 119 171 m 842 210 q 925 324 907 275 q 943 488 943 374 q 927 656 943 603 q 863 763 911 710 q 657 888 775 856 q 538 906 597 904 q 421 889 479 906 q 215 764 303 856 q 149 658 165 711 q 133 492 133 604 q 151 328 133 379 q 242 200 169 276 q 389 100 314 124 q 500 86 433 86 q 601 93 546 86 q 842 210 740 108 m 531 210 q 373 271 426 211 q 319 504 319 331 q 334 653 319 610 q 387 724 349 697 q 467 767 425 751 q 538 782 510 782 q 609 767 567 782 q 682 731 651 751 q 751 600 731 697 q 764 488 764 544 q 757 404 764 446 q 696 264 742 306 q 538 210 636 210 q 531 210 533 210 m 665 588 q 539 664 629 665 q 453 645 481 664 q 407 572 425 626 q 392 488 392 528 q 431 369 392 424 q 546 303 478 304 q 551 304 549 303 q 663 408 624 307 q 683 508 683 461 q 665 588 682 550 z "},"":{"ha":993,"x_min":42,"x_max":951,"o":"m 315 1157 q 240 1285 240 1238 q 260 1326 240 1310 q 366 1349 288 1350 q 512 1283 444 1349 q 579 1131 579 1217 q 503 1078 579 1082 q 492 1078 497 1078 q 350 1128 421 1078 q 315 1157 331 1142 m 403 1247 q 389 1238 389 1247 q 400 1213 389 1229 l 411 1197 q 465 1146 453 1146 q 463 1182 476 1146 q 403 1247 438 1247 m 43 614 l 42 994 q 379 994 42 994 l 379 710 q 388 447 379 515 q 412 358 397 379 q 445 327 426 336 q 497 318 464 318 q 549 327 529 318 q 583 358 568 336 q 603 426 597 379 q 615 710 615 515 l 615 994 l 951 994 l 951 640 q 946 397 951 486 q 920 240 940 307 q 869 138 900 174 q 783 69 839 101 q 504 15 701 21 q 458 14 481 14 q 228 53 297 14 q 158 97 185 76 q 108 149 131 117 q 74 215 86 181 q 56 310 63 250 q 43 614 43 404 m 781 197 q 840 278 824 240 q 865 383 857 317 q 879 606 874 450 l 892 926 l 685 926 l 675 597 q 655 306 668 349 q 603 247 642 264 l 574 236 q 493 222 532 222 q 397 243 444 222 q 338 287 356 263 q 317 356 319 311 q 311 604 311 446 l 311 926 l 103 926 l 115 608 q 138 329 124 399 q 214 195 153 260 q 383 103 275 131 q 496 88 440 89 q 600 100 547 88 q 781 197 708 125 z "},"":{"ha":993,"x_min":42,"x_max":951,"o":"m 135 1110 q 133 1118 133 1111 q 294 1506 133 1189 q 335 1575 311 1539 q 368 1621 358 1611 q 401 1642 378 1631 q 442 1653 425 1653 q 533 1653 497 1653 q 592 1642 568 1653 q 624 1621 615 1631 q 656 1575 633 1611 q 694 1506 679 1539 q 743 1397 708 1472 q 858 1110 858 1144 q 816 1087 858 1096 q 696 1078 774 1078 q 587 1094 618 1078 q 533 1171 556 1110 l 499 1264 l 454 1171 q 394 1095 426 1113 q 295 1078 361 1078 q 186 1087 229 1078 q 135 1110 143 1096 m 394 1288 q 439 1391 413 1346 q 486 1443 465 1436 q 534 1402 504 1443 q 592 1299 564 1361 q 654 1191 619 1236 q 708 1146 689 1146 q 726 1167 726 1146 q 665 1333 726 1210 q 560 1520 604 1456 q 497 1585 515 1585 q 438 1526 479 1585 q 326 1330 396 1468 q 257 1165 257 1192 q 300 1146 257 1146 q 347 1188 319 1146 q 394 1288 375 1229 m 43 614 l 42 994 q 379 994 42 994 l 379 710 q 388 447 379 515 q 412 358 397 379 q 445 327 426 336 q 497 318 464 318 q 549 327 529 318 q 583 358 568 336 q 603 426 597 379 q 615 710 615 515 l 615 994 l 951 994 l 951 640 q 946 397 951 486 q 920 240 940 307 q 869 138 900 174 q 783 69 839 101 q 504 15 701 21 q 458 14 481 14 q 228 53 297 14 q 158 97 185 76 q 108 149 131 117 q 74 215 86 181 q 56 310 63 250 q 43 614 43 404 m 781 197 q 840 278 824 240 q 865 383 857 317 q 879 606 874 450 l 892 926 l 685 926 l 675 597 q 655 306 668 349 q 603 247 642 264 l 574 236 q 493 222 532 222 q 397 243 444 222 q 338 287 356 263 q 317 356 319 311 q 311 604 311 446 l 311 926 l 103 926 l 115 608 q 138 329 124 399 q 214 195 153 260 q 383 103 275 131 q 496 88 440 89 q 600 100 547 88 q 781 197 708 125 z "},"":{"ha":896,"x_min":42,"x_max":854,"o":"m 285 907 q 210 1035 210 988 q 229 1076 210 1060 q 335 1099 257 1100 q 481 1033 414 1099 q 549 881 549 967 q 472 828 549 832 q 461 828 467 828 q 319 878 390 828 q 285 907 300 892 m 372 997 q 358 988 358 997 q 369 963 358 979 l 381 947 q 434 896 422 896 q 432 932 446 896 q 372 997 407 997 m 169 453 q 124 469 169 469 q 74 526 74 469 l 74 528 q 139 650 74 586 l 161 669 q 340 735 221 717 q 464 744 404 744 q 806 611 742 744 q 830 514 822 578 q 843 306 838 450 l 854 0 l 513 0 q 219 12 292 0 q 104 65 146 24 q 42 215 42 128 q 113 374 42 303 q 169 453 169 432 m 401 129 q 325 149 342 131 q 308 221 308 167 q 321 306 308 275 q 353 337 333 336 q 374 342 374 338 q 358 353 374 347 q 317 358 343 358 q 239 339 290 358 q 162 285 188 319 q 136 215 136 250 q 156 147 136 179 q 217 99 176 115 q 325 69 288 69 q 414 92 363 69 q 468 119 465 114 q 457 125 469 124 l 401 129 m 178 543 q 185 540 178 538 q 299 561 204 540 q 483 594 450 594 q 534 590 515 594 q 576 557 553 585 q 599 505 599 529 q 583 458 599 481 q 467 392 550 408 q 438 382 438 386 q 512 372 438 375 q 599 354 586 369 q 606 331 606 347 q 597 276 606 314 q 570 206 588 238 q 542 171 553 175 q 532 161 532 167 q 591 109 532 147 q 706 67 650 71 q 747 293 747 67 q 731 512 747 457 q 698 589 715 567 q 636 632 681 611 q 476 654 592 653 l 458 654 q 303 641 356 654 q 215 590 251 628 q 178 543 179 551 m 485 285 q 463 279 475 285 q 411 244 411 260 q 431 233 411 233 q 466 240 450 232 q 494 267 482 247 q 485 285 507 286 z "},"":{"ha":896,"x_min":42,"x_max":854,"o":"m 106 860 q 104 868 104 861 q 265 1256 104 939 q 306 1325 282 1289 q 339 1371 329 1361 q 372 1392 349 1381 q 413 1403 396 1403 q 503 1403 468 1403 q 563 1392 539 1403 q 595 1371 586 1381 q 627 1325 604 1361 q 665 1256 650 1289 q 714 1147 679 1222 q 829 860 829 894 q 787 837 829 846 q 667 828 744 828 q 558 844 589 828 q 504 921 526 860 l 469 1014 l 425 921 q 365 845 397 863 q 266 828 332 828 q 157 837 200 828 q 106 860 114 846 m 365 1038 q 410 1141 383 1096 q 457 1193 436 1186 q 505 1152 475 1193 q 563 1049 535 1111 q 625 941 590 986 q 678 896 660 896 q 697 917 697 896 q 636 1083 697 960 q 531 1270 575 1206 q 468 1335 486 1335 q 408 1276 450 1335 q 297 1080 367 1218 q 228 915 228 942 q 271 896 228 896 q 318 938 290 896 q 365 1038 346 979 m 169 453 q 124 469 169 469 q 74 526 74 469 l 74 528 q 139 650 74 586 l 161 669 q 340 735 221 717 q 464 744 404 744 q 806 611 742 744 q 830 514 822 578 q 843 306 838 450 l 854 0 l 513 0 q 219 12 292 0 q 104 65 146 24 q 42 215 42 128 q 113 374 42 303 q 169 453 169 432 m 401 129 q 325 149 342 131 q 308 221 308 167 q 321 306 308 275 q 353 337 333 336 q 374 342 374 338 q 358 353 374 347 q 317 358 343 358 q 239 339 290 358 q 162 285 188 319 q 136 215 136 250 q 156 147 136 179 q 217 99 176 115 q 325 69 288 69 q 414 92 363 69 q 468 119 465 114 q 457 125 469 124 l 401 129 m 178 543 q 185 540 178 538 q 299 561 204 540 q 483 594 450 594 q 534 590 515 594 q 576 557 553 585 q 599 505 599 529 q 583 458 599 481 q 467 392 550 408 q 438 382 438 386 q 512 372 438 375 q 599 354 586 369 q 606 331 606 347 q 597 276 606 314 q 570 206 588 238 q 542 171 553 175 q 532 161 532 167 q 591 109 532 147 q 706 67 650 71 q 747 293 747 67 q 731 512 747 457 q 698 589 715 567 q 636 632 681 611 q 476 654 592 653 l 458 654 q 303 641 356 654 q 215 590 251 628 q 178 543 179 551 m 485 285 q 463 279 475 285 q 411 244 411 260 q 431 233 411 233 q 466 240 450 232 q 494 267 482 247 q 485 285 507 286 z "},"":{"ha":896,"x_min":42,"x_max":854,"o":"m 789 1165 q 854 1055 854 1165 q 790 886 854 944 q 623 828 725 828 q 429 866 521 828 q 302 904 338 904 q 202 869 267 904 q 115 833 138 833 q 85 861 92 833 q 79 965 79 889 q 138 1150 79 1106 q 312 1194 197 1194 q 519 1146 426 1194 q 619 1113 585 1113 q 703 1139 654 1113 q 789 1165 751 1165 m 206 983 l 294 990 q 471 949 394 990 q 496 935 482 943 q 517 924 510 928 q 533 915 524 919 q 549 908 543 910 q 560 903 554 906 q 583 899 571 899 q 672 928 594 899 q 750 989 750 958 q 719 1017 750 1007 q 637 1028 689 1028 q 519 1044 585 1028 q 399 1088 454 1060 q 314 1117 343 1117 q 217 1073 285 1117 q 150 1004 150 1029 q 206 983 150 983 m 169 453 q 124 469 169 469 q 74 526 74 469 l 74 528 q 139 650 74 586 l 161 669 q 340 735 221 717 q 464 744 404 744 q 806 611 742 744 q 830 514 822 578 q 843 306 838 450 l 854 0 l 513 0 q 219 12 292 0 q 104 65 146 24 q 42 215 42 128 q 113 374 42 303 q 169 453 169 432 m 401 129 q 325 149 342 131 q 308 221 308 167 q 321 306 308 275 q 353 337 333 336 q 374 342 374 338 q 358 353 374 347 q 317 358 343 358 q 239 339 290 358 q 162 285 188 319 q 136 215 136 250 q 156 147 136 179 q 217 99 176 115 q 325 69 288 69 q 414 92 363 69 q 468 119 465 114 q 457 125 469 124 l 401 129 m 178 543 q 185 540 178 538 q 299 561 204 540 q 483 594 450 594 q 534 590 515 594 q 576 557 553 585 q 599 505 599 529 q 583 458 599 481 q 467 392 550 408 q 438 382 438 386 q 512 372 438 375 q 599 354 586 369 q 606 331 606 347 q 597 276 606 314 q 570 206 588 238 q 542 171 553 175 q 532 161 532 167 q 591 109 532 147 q 706 67 650 71 q 747 293 747 67 q 731 512 747 457 q 698 589 715 567 q 636 632 681 611 q 476 654 592 653 l 458 654 q 303 641 356 654 q 215 590 251 628 q 178 543 179 551 m 485 285 q 463 279 475 285 q 411 244 411 260 q 431 233 411 233 q 466 240 450 232 q 494 267 482 247 q 485 285 507 286 z "},"":{"ha":911,"x_min":42,"x_max":871,"o":"m 261 907 q 186 1035 186 988 q 206 1076 186 1060 q 312 1099 233 1100 q 458 1033 390 1099 q 525 881 525 967 q 449 828 525 832 q 438 828 443 828 q 296 878 367 828 q 261 907 276 892 m 349 997 q 335 988 335 997 q 346 963 335 979 l 357 947 q 410 896 399 896 q 408 932 422 896 q 349 997 383 997 m 213 44 q 87 178 131 92 q 42 363 43 265 q 42 371 42 367 q 64 510 42 463 q 158 631 86 558 q 280 724 231 704 q 443 743 329 743 q 849 528 776 743 q 871 379 871 460 q 863 276 871 329 q 776 78 840 135 q 621 19 735 40 q 443 4 533 4 q 388 6 415 4 q 213 44 267 13 m 608 103 q 684 138 653 118 q 715 171 715 158 q 682 199 715 190 q 653 201 667 201 q 613 197 633 201 q 562 167 575 189 q 507 138 549 146 q 472 135 489 135 q 419 140 447 135 q 354 171 374 150 q 322 226 335 192 q 310 293 310 261 q 344 360 310 349 q 497 371 378 371 q 661 374 617 371 q 735 385 706 376 q 776 406 765 393 q 781 442 786 419 q 701 564 772 479 q 560 651 647 626 q 463 665 511 665 q 382 656 422 665 q 229 576 292 636 q 139 374 143 496 q 139 365 139 369 q 225 172 139 250 q 397 75 314 92 q 444 71 419 71 q 450 71 447 71 q 608 103 519 71 m 310 465 q 353 567 310 526 q 463 608 397 608 q 571 567 528 608 q 614 465 614 526 q 584 416 614 428 q 476 404 554 404 q 367 410 399 404 q 323 428 336 415 q 310 465 310 440 m 444 476 q 476 474 463 475 q 507 485 507 474 q 481 501 507 500 q 439 496 457 503 q 422 483 422 489 q 444 476 421 479 z "},"":{"ha":911,"x_min":42,"x_max":871,"o":"m 82 860 q 81 868 81 861 q 242 1256 81 939 q 282 1325 258 1289 q 315 1371 306 1361 q 349 1392 325 1381 q 389 1403 372 1403 q 480 1403 444 1403 q 539 1392 515 1403 q 572 1371 563 1381 q 603 1325 581 1361 q 641 1256 626 1289 q 690 1147 656 1222 q 806 860 806 894 q 763 837 806 846 q 643 828 721 828 q 534 844 565 828 q 481 921 503 860 l 446 1014 l 401 921 q 341 845 374 863 q 242 828 308 828 q 133 837 176 828 q 82 860 90 846 m 342 1038 q 386 1141 360 1096 q 433 1193 413 1186 q 481 1152 451 1193 q 539 1049 511 1111 q 601 941 567 986 q 655 896 636 896 q 674 917 674 896 q 613 1083 674 960 q 507 1270 551 1206 q 444 1335 463 1335 q 385 1276 426 1335 q 274 1080 343 1218 q 204 915 204 942 q 247 896 204 896 q 294 938 267 896 q 342 1038 322 979 m 213 44 q 87 178 131 92 q 42 363 43 265 q 42 371 42 367 q 64 510 42 463 q 158 631 86 558 q 280 724 231 704 q 443 743 329 743 q 849 528 776 743 q 871 379 871 460 q 863 276 871 329 q 776 78 840 135 q 621 19 735 40 q 443 4 533 4 q 388 6 415 4 q 213 44 267 13 m 608 103 q 684 138 653 118 q 715 171 715 158 q 682 199 715 190 q 653 201 667 201 q 613 197 633 201 q 562 167 575 189 q 507 138 549 146 q 472 135 489 135 q 419 140 447 135 q 354 171 374 150 q 322 226 335 192 q 310 293 310 261 q 344 360 310 349 q 497 371 378 371 q 661 374 617 371 q 735 385 706 376 q 776 406 765 393 q 781 442 786 419 q 701 564 772 479 q 560 651 647 626 q 463 665 511 665 q 382 656 422 665 q 229 576 292 636 q 139 374 143 496 q 139 365 139 369 q 225 172 139 250 q 397 75 314 92 q 444 71 419 71 q 450 71 447 71 q 608 103 519 71 m 310 465 q 353 567 310 526 q 463 608 397 608 q 571 567 528 608 q 614 465 614 526 q 584 416 614 428 q 476 404 554 404 q 367 410 399 404 q 323 428 336 415 q 310 465 310 440 m 444 476 q 476 474 463 475 q 507 485 507 474 q 481 501 507 500 q 439 496 457 503 q 422 483 422 489 q 444 476 421 479 z "},"":{"ha":415,"x_min":42,"x_max":457,"o":"m 193 1172 q 118 1300 118 1253 q 138 1342 118 1325 q 244 1365 165 1365 q 390 1298 322 1364 q 457 1146 457 1232 q 381 1093 457 1097 q 369 1093 375 1093 q 228 1143 299 1093 q 193 1172 208 1157 m 281 1263 q 267 1253 267 1263 q 278 1228 267 1244 l 289 1213 q 342 1161 331 1161 q 340 1197 354 1161 q 281 1263 315 1263 m 51 69 q 43 229 44 88 q 42 333 42 279 q 44 551 42 435 l 54 989 l 375 1010 l 375 25 l 221 25 q 51 69 68 25 m 307 283 q 307 472 307 317 q 296 663 307 628 q 250 700 285 699 q 207 701 242 700 q 156 681 172 701 q 139 510 140 660 q 139 321 139 476 q 149 131 139 165 q 196 93 160 96 q 239 93 204 93 q 290 113 274 93 q 307 283 306 133 m 267 842 q 277 845 267 842 q 297 860 286 849 q 307 892 307 872 q 285 924 307 911 q 223 938 263 938 q 161 924 183 938 q 139 888 139 911 q 161 850 139 864 q 216 836 183 836 q 267 842 249 836 z "},"":{"ha":415,"x_min":13,"x_max":738,"o":"m 14 1125 q 13 1133 13 1126 q 174 1521 13 1204 q 214 1590 190 1554 q 247 1636 238 1626 q 281 1657 257 1646 q 321 1668 304 1668 q 412 1668 376 1668 q 471 1657 447 1668 q 503 1636 494 1646 q 535 1590 513 1626 q 573 1521 558 1554 q 622 1413 588 1488 q 738 1125 738 1160 q 695 1102 738 1111 q 575 1093 653 1093 q 466 1109 497 1093 q 413 1186 435 1125 l 378 1279 l 333 1186 q 273 1110 306 1128 q 174 1093 240 1093 q 65 1102 108 1093 q 14 1125 22 1111 m 274 1303 q 318 1406 292 1361 q 365 1458 344 1451 q 413 1417 383 1458 q 471 1314 443 1376 q 533 1206 499 1251 q 587 1161 568 1161 q 606 1182 606 1161 q 544 1348 606 1225 q 439 1535 483 1471 q 376 1600 394 1600 q 317 1542 358 1600 q 206 1345 275 1483 q 136 1181 136 1207 q 179 1161 136 1161 q 226 1203 199 1161 q 274 1303 254 1244 m 51 69 q 43 229 44 88 q 42 333 42 279 q 44 551 42 435 l 54 989 l 375 1010 l 375 25 l 221 25 q 51 69 68 25 m 307 283 q 307 472 307 317 q 296 663 307 628 q 250 700 285 699 q 207 701 242 700 q 156 681 172 701 q 139 510 140 660 q 139 321 139 476 q 149 131 139 165 q 196 93 160 96 q 239 93 204 93 q 290 113 274 93 q 307 283 306 133 m 267 842 q 277 845 267 842 q 297 860 286 849 q 307 892 307 872 q 285 924 307 911 q 223 938 263 938 q 161 924 183 938 q 139 888 139 911 q 161 850 139 864 q 216 836 183 836 q 267 842 249 836 z "},"":{"ha":858,"x_min":42,"x_max":818,"o":"m 751 1165 q 817 1055 817 1165 q 752 886 817 944 q 585 828 688 828 q 392 866 483 828 q 265 904 300 904 q 165 869 229 904 q 77 833 100 833 q 48 861 54 833 q 42 965 42 889 q 101 1150 42 1106 q 274 1194 160 1194 q 482 1146 389 1194 q 582 1113 547 1113 q 665 1139 617 1113 q 751 1165 714 1165 m 168 983 l 257 990 q 433 949 357 990 q 458 935 444 943 q 479 924 472 928 q 496 915 486 919 q 511 908 506 910 q 522 903 517 906 q 545 899 533 899 q 635 928 557 899 q 713 989 713 958 q 682 1017 713 1007 q 599 1028 651 1028 q 482 1044 547 1028 q 361 1088 417 1060 q 276 1117 306 1117 q 180 1073 247 1117 q 113 1004 113 1029 q 168 983 113 983 m 42 740 l 361 739 q 613 733 582 739 q 664 722 643 726 q 699 706 685 717 q 792 575 768 649 q 818 283 817 501 l 818 0 l 483 0 l 474 228 q 453 408 468 360 q 429 457 439 457 q 403 390 415 457 q 385 228 390 322 l 376 0 l 42 0 l 42 740 m 378 558 q 444 571 415 571 q 513 538 492 571 q 548 308 547 485 q 560 99 549 131 q 632 68 571 68 q 705 101 693 68 q 717 266 717 135 q 715 438 717 397 q 709 513 713 479 q 694 567 706 547 q 626 633 675 601 q 547 666 576 665 q 453 635 517 667 q 360 591 390 603 q 310 578 329 579 q 284 590 290 578 q 278 624 278 601 q 258 662 278 647 q 210 676 239 676 q 153 630 163 676 q 143 420 143 583 q 144 204 143 257 q 153 116 146 151 q 173 74 161 81 q 219 68 185 68 q 266 97 254 68 q 278 257 278 125 q 302 465 279 389 q 378 558 325 542 z "},"":{"ha":904,"x_min":43,"x_max":864,"o":"m 279 907 q 204 1035 204 988 q 224 1076 204 1060 q 330 1099 251 1100 q 476 1033 408 1099 q 543 881 543 967 q 467 828 543 832 q 456 828 461 828 q 314 878 385 828 q 279 907 294 892 m 367 997 q 353 988 353 997 q 364 963 353 979 l 375 947 q 428 896 417 896 q 426 932 440 896 q 367 997 401 997 m 322 8 q 300 13 322 8 q 242 40 278 17 q 160 109 207 63 q 94 178 113 156 q 62 222 76 200 q 44 269 47 243 q 43 308 43 288 q 49 397 43 346 q 461 744 88 744 q 631 726 578 744 q 757 644 685 708 q 847 535 829 579 q 863 392 864 493 q 863 371 863 382 q 842 206 861 253 q 754 97 824 160 q 631 17 685 35 q 472 0 576 0 q 322 8 367 0 m 669 153 q 768 288 743 201 q 779 367 779 326 q 763 463 779 414 q 611 622 722 578 q 435 658 521 658 q 279 615 349 658 q 175 506 210 571 q 143 371 143 444 q 143 358 143 365 q 194 208 146 278 q 406 83 271 99 q 446 81 426 81 q 669 153 560 81 m 422 174 q 347 200 378 181 q 303 283 315 219 q 296 354 296 318 q 301 417 296 385 q 340 521 311 486 q 454 574 379 568 q 468 574 461 574 q 569 536 533 574 q 611 372 611 494 q 572 210 611 249 q 508 176 549 186 q 457 171 483 171 q 422 174 440 171 m 504 444 q 451 467 476 467 q 431 463 440 467 q 378 382 382 444 q 378 372 378 376 q 418 276 378 317 q 456 254 440 254 q 460 254 458 254 q 511 304 476 257 q 544 369 544 350 q 504 444 544 413 z "},"":{"ha":904,"x_min":43,"x_max":864,"o":"m 100 860 q 99 868 99 861 q 260 1256 99 939 q 300 1325 276 1289 q 333 1371 324 1361 q 367 1392 343 1381 q 407 1403 390 1403 q 498 1403 463 1403 q 557 1392 533 1403 q 590 1371 581 1381 q 622 1325 599 1361 q 659 1256 644 1289 q 708 1147 674 1222 q 824 860 824 894 q 781 837 824 846 q 661 828 739 828 q 552 844 583 828 q 499 921 521 860 l 464 1014 l 419 921 q 359 845 392 863 q 260 828 326 828 q 151 837 194 828 q 100 860 108 846 m 360 1038 q 404 1141 378 1096 q 451 1193 431 1186 q 499 1152 469 1193 q 557 1049 529 1111 q 619 941 585 986 q 673 896 654 896 q 692 917 692 896 q 631 1083 692 960 q 525 1270 569 1206 q 463 1335 481 1335 q 403 1276 444 1335 q 292 1080 361 1218 q 222 915 222 942 q 265 896 222 896 q 313 938 285 896 q 360 1038 340 979 m 322 8 q 300 13 322 8 q 242 40 278 17 q 160 109 207 63 q 94 178 113 156 q 62 222 76 200 q 44 269 47 243 q 43 308 43 288 q 49 397 43 346 q 461 744 88 744 q 631 726 578 744 q 757 644 685 708 q 847 535 829 579 q 863 392 864 493 q 863 371 863 382 q 842 206 861 253 q 754 97 824 160 q 631 17 685 35 q 472 0 576 0 q 322 8 367 0 m 669 153 q 768 288 743 201 q 779 367 779 326 q 763 463 779 414 q 611 622 722 578 q 435 658 521 658 q 279 615 349 658 q 175 506 210 571 q 143 371 143 444 q 143 358 143 365 q 194 208 146 278 q 406 83 271 99 q 446 81 426 81 q 669 153 560 81 m 422 174 q 347 200 378 181 q 303 283 315 219 q 296 354 296 318 q 301 417 296 385 q 340 521 311 486 q 454 574 379 568 q 468 574 461 574 q 569 536 533 574 q 611 372 611 494 q 572 210 611 249 q 508 176 549 186 q 457 171 483 171 q 422 174 440 171 m 504 444 q 451 467 476 467 q 431 463 440 467 q 378 382 382 444 q 378 372 378 376 q 418 276 378 317 q 456 254 440 254 q 460 254 458 254 q 511 304 476 257 q 544 369 544 350 q 504 444 544 413 z "},"":{"ha":904,"x_min":43,"x_max":864,"o":"m 783 1165 q 849 1055 849 1165 q 784 886 849 944 q 617 828 719 828 q 424 866 515 828 q 297 904 332 904 q 197 869 261 904 q 109 833 132 833 q 80 861 86 833 q 74 965 74 889 q 133 1150 74 1106 q 306 1194 192 1194 q 514 1146 421 1194 q 614 1113 579 1113 q 697 1139 649 1113 q 783 1165 746 1165 m 200 983 l 289 990 q 465 949 389 990 q 490 935 476 943 q 511 924 504 928 q 528 915 518 919 q 543 908 538 910 q 554 903 549 906 q 577 899 565 899 q 667 928 589 899 q 744 989 744 958 q 714 1017 744 1007 q 631 1028 683 1028 q 514 1044 579 1028 q 393 1088 449 1060 q 308 1117 338 1117 q 212 1073 279 1117 q 144 1004 144 1029 q 200 983 144 983 m 322 8 q 300 13 322 8 q 242 40 278 17 q 160 109 207 63 q 94 178 113 156 q 62 222 76 200 q 44 269 47 243 q 43 308 43 288 q 49 397 43 346 q 461 744 88 744 q 631 726 578 744 q 757 644 685 708 q 847 535 829 579 q 863 392 864 493 q 863 371 863 382 q 842 206 861 253 q 754 97 824 160 q 631 17 685 35 q 472 0 576 0 q 322 8 367 0 m 669 153 q 768 288 743 201 q 779 367 779 326 q 763 463 779 414 q 611 622 722 578 q 435 658 521 658 q 279 615 349 658 q 175 506 210 571 q 143 371 143 444 q 143 358 143 365 q 194 208 146 278 q 406 83 271 99 q 446 81 426 81 q 669 153 560 81 m 422 174 q 347 200 378 181 q 303 283 315 219 q 296 354 296 318 q 301 417 296 385 q 340 521 311 486 q 454 574 379 568 q 468 574 461 574 q 569 536 533 574 q 611 372 611 494 q 572 210 611 249 q 508 176 549 186 q 457 171 483 171 q 422 174 440 171 m 504 444 q 451 467 476 467 q 431 463 440 467 q 378 382 382 444 q 378 372 378 376 q 418 276 378 317 q 456 254 440 254 q 460 254 458 254 q 511 304 476 257 q 544 369 544 350 q 504 444 544 413 z "},"":{"ha":858,"x_min":42,"x_max":817,"o":"m 247 907 q 172 1035 172 988 q 192 1076 172 1060 q 298 1099 219 1100 q 444 1033 376 1099 q 511 881 511 967 q 435 828 511 832 q 424 828 429 828 q 282 878 353 828 q 247 907 263 892 m 335 997 q 321 988 321 997 q 332 963 321 979 l 343 947 q 397 896 385 896 q 394 932 408 896 q 335 997 369 997 m 415 240 q 421 242 419 242 q 474 482 463 257 l 483 707 l 817 707 l 817 -33 l 494 -32 q 218 -20 289 -32 q 107 33 147 -8 q 54 142 67 74 q 42 403 42 211 l 42 707 l 379 707 l 379 468 q 415 240 379 240 m 199 93 q 290 35 250 35 q 412 82 331 35 q 537 129 493 129 q 581 82 581 129 q 601 45 581 60 q 649 31 621 31 q 706 77 696 31 q 717 342 717 124 q 706 601 717 561 q 632 640 694 640 q 572 629 589 640 q 553 589 556 617 q 547 400 547 533 q 517 197 547 261 q 407 132 486 132 q 278 451 278 132 q 266 608 278 575 q 210 640 254 640 q 167 628 176 640 q 153 601 157 615 q 147 557 150 588 q 143 387 143 511 q 156 194 143 263 q 199 93 168 126 z "},"":{"ha":858,"x_min":42,"x_max":817,"o":"m 68 860 q 67 868 67 861 q 228 1256 67 939 q 268 1325 244 1289 q 301 1371 292 1361 q 335 1392 311 1381 q 375 1403 358 1403 q 466 1403 431 1403 q 525 1392 501 1403 q 558 1371 549 1381 q 590 1325 567 1361 q 627 1256 613 1289 q 676 1147 642 1222 q 792 860 792 894 q 749 837 792 846 q 629 828 707 828 q 520 844 551 828 q 467 921 489 860 l 432 1014 l 388 921 q 327 845 360 863 q 228 828 294 828 q 119 837 163 828 q 68 860 76 846 m 328 1038 q 372 1141 346 1096 q 419 1193 399 1186 q 467 1152 438 1193 q 525 1049 497 1111 q 588 941 553 986 q 641 896 622 896 q 660 917 660 896 q 599 1083 660 960 q 493 1270 538 1206 q 431 1335 449 1335 q 371 1276 413 1335 q 260 1080 329 1218 q 190 915 190 942 q 233 896 190 896 q 281 938 253 896 q 328 1038 308 979 m 415 240 q 421 242 419 242 q 474 482 463 257 l 483 707 l 817 707 l 817 -33 l 494 -32 q 218 -20 289 -32 q 107 33 147 -8 q 54 142 67 74 q 42 403 42 211 l 42 707 l 379 707 l 379 468 q 415 240 379 240 m 199 93 q 290 35 250 35 q 412 82 331 35 q 537 129 493 129 q 581 82 581 129 q 601 45 581 60 q 649 31 621 31 q 706 77 696 31 q 717 342 717 124 q 706 601 717 561 q 632 640 694 640 q 572 629 589 640 q 553 589 556 617 q 547 400 547 533 q 517 197 547 261 q 407 132 486 132 q 278 451 278 132 q 266 608 278 575 q 210 640 254 640 q 167 628 176 640 q 153 601 157 615 q 147 557 150 588 q 143 387 143 511 q 156 194 143 263 q 199 93 168 126 z "}}}
